<svg width="98" height="101" viewBox="0 0 98 101" fill="none" xmlns="http://www.w3.org/2000/svg">
<g clip-path="url(#clip0)">
<path d="M73.0515 100.226C71.8844 101.023 71.4601 99.8282 69.9748 99.8282C68.5956 99.8282 68.5956 100.226 67.1103 100.226C65.731 100.226 65.731 99.9277 64.2457 99.9277C62.8665 99.9277 62.8665 100.326 61.3812 100.326C60.002 100.326 60.002 99.8282 58.5167 99.8282C57.1375 99.8282 57.1375 99.6291 55.6522 99.6291C54.273 99.6291 54.273 99.6291 52.7877 99.6291C51.4085 99.6291 51.4085 100.226 49.9232 100.226C48.544 100.226 48.544 100.326 47.0587 100.326C45.6794 100.326 45.6794 99.9277 44.1941 99.9277C42.8149 99.9277 42.8149 100.425 41.3296 100.425C39.9504 100.425 39.9504 100.326 38.4651 100.326C37.0859 100.326 37.0859 100.425 35.6006 100.425C34.2214 100.425 34.2214 99.6291 32.7361 99.6291C31.3569 99.6291 31.3569 99.9277 29.8716 99.9277C28.4924 99.9277 28.4924 99.7287 27.0071 99.7287C25.5218 99.7287 25.0974 101.023 24.0365 100.226C22.8694 99.4301 23.8243 98.7334 23.506 97.4395C23.0816 96.1457 23.2938 96.1457 22.8694 94.8518C22.4451 93.558 22.4451 93.558 22.0207 92.2641C21.5963 90.9703 21.8085 90.9703 21.3841 89.6764C20.9598 88.3826 20.6415 88.4821 20.3232 87.1882C19.8988 85.8944 19.4745 85.9939 19.0501 84.7996C18.6257 83.5057 19.1562 83.4062 18.8379 82.1124C18.4135 80.8185 18.6257 80.8185 18.2013 79.5247C17.777 78.2308 16.9282 78.4298 16.6099 77.136C16.1856 75.8421 16.716 75.7426 16.2917 74.4488C15.8673 73.1549 15.9734 73.1549 15.549 71.8611C15.1246 70.5672 15.3368 70.5672 14.9124 69.2733C14.4881 67.9795 14.2759 68.079 13.8515 66.7852C13.4271 65.4913 13.1089 65.5908 12.6845 64.297C12.2601 63.0031 12.6845 62.9036 12.3662 61.6098C11.9418 60.3159 12.2601 60.2164 11.8357 58.9225C11.4114 57.6287 10.7748 57.8277 10.3504 56.5339C9.92607 55.24 9.28951 55.1405 10.1383 54.0457C10.987 52.9509 11.3053 53.6476 12.6845 53.6476C14.1698 53.6476 14.1698 54.2447 15.549 54.2447C16.9282 54.2447 16.9282 54.0457 18.4135 54.0457C19.8988 54.0457 19.8988 54.1452 21.278 54.1452C22.7633 54.1452 22.7633 53.6476 24.1425 53.6476C25.6279 53.6476 25.6278 53.5481 27.0071 53.5481C28.4924 53.5481 28.4924 53.349 29.8716 53.349C31.2508 53.349 31.2508 53.8466 32.7361 53.8466C34.2214 53.8466 34.2214 53.7471 35.6006 53.7471C36.9798 53.7471 36.9798 54.2447 38.4651 54.2447C39.8443 54.2447 39.8443 54.3443 41.3296 54.3443C42.7088 54.3443 42.7088 53.4485 44.1941 53.4485C45.6794 53.4485 45.6794 53.8466 47.0587 53.8466C48.4379 53.8466 48.4379 54.1452 49.9232 54.1452C51.4085 54.1452 51.4085 53.6476 52.7877 53.6476C54.273 53.6476 54.273 53.4485 55.6522 53.4485C57.1375 53.4485 57.1375 53.9462 58.5167 53.9462C60.002 53.9462 60.002 53.7471 61.3812 53.7471C62.8665 53.7471 62.8665 53.7471 64.2457 53.7471C65.731 53.7471 65.731 53.6476 67.1103 53.6476C68.4895 53.6476 68.5956 54.0457 69.9748 54.0457C71.4601 54.0457 71.4601 53.349 72.8393 53.349C74.3246 53.349 74.3246 54.0457 75.7038 54.0457C77.1891 54.0457 77.1891 53.7471 78.5683 53.7471C80.0536 53.7471 80.0536 53.9462 81.4328 53.9462C82.9181 53.9462 82.9181 53.4485 84.2973 53.4485C85.7826 53.4485 85.8887 53.0504 86.7375 54.1452C87.5862 55.24 86.9497 55.24 86.6314 56.4343C86.207 57.7282 85.6766 57.5291 85.3583 58.823C84.9339 60.1168 84.8278 60.1168 84.5095 61.4107C84.0852 62.7046 84.9339 62.9036 84.5095 64.1975C84.0852 65.4913 83.979 65.4913 83.6608 66.7852C83.2364 68.079 82.4938 67.88 82.0694 69.1738C81.645 70.4677 82.0694 70.5672 81.7511 71.8611C81.3267 73.1549 81.7511 73.2544 81.3267 74.5483C80.9024 75.8421 80.6902 75.7426 80.2658 77.0365C79.8414 78.3303 80.1597 78.4298 79.7353 79.7237C79.311 81.0176 78.3561 80.719 78.0378 82.0128C77.6135 83.3067 78.0378 83.4062 77.6135 84.7001C77.1891 85.9939 77.4013 85.9939 76.9769 87.2878C76.5525 88.4821 76.8708 88.4821 76.4464 89.776C76.0221 91.0698 75.5977 90.9703 75.1733 92.2641C74.749 93.558 75.2794 93.6575 74.855 94.9514C74.4307 96.2452 73.4758 96.0462 73.3697 97.4395C73.3697 98.9325 74.2185 99.4301 73.0515 100.226Z" fill="#F36B7F"/>
<path d="M28.7045 74.7472C27.5375 74.1501 28.3863 73.6524 28.068 72.3586C27.7497 71.0647 27.8558 71.0647 27.5375 69.8704C27.2192 68.5765 27.0071 68.6761 26.6888 67.3822C26.3705 66.0884 26.2644 66.1879 25.9461 64.894C25.6278 63.6002 26.0522 63.6002 25.84 62.3063C25.5218 61.0125 26.0522 60.913 25.84 59.7186C25.6278 58.4248 24.5669 58.6238 24.3547 57.33C24.0364 56.0361 24.1425 56.0361 23.9304 54.7423C23.6121 53.4484 24.1425 53.3489 23.9304 52.1546C23.7182 50.9602 22.5511 50.7612 23.3999 49.7659C24.3547 48.5716 24.673 48.6711 26.1583 49.4673C27.3253 50.0645 26.7949 50.2635 27.1131 51.5574C27.4314 52.8513 27.0071 52.8513 27.3253 54.1451C27.6436 55.439 28.1741 55.2399 28.4924 56.5338C28.8106 57.8276 28.7045 57.8276 29.0228 59.0219C29.3411 60.3158 29.1289 60.3158 29.3411 61.6096C29.6594 62.9035 29.3411 62.9035 29.5533 64.1973C29.8716 65.4912 29.4472 65.4912 29.7655 66.7851C30.0838 68.0789 30.7203 67.8799 31.0386 69.1737C31.3569 70.4676 31.463 70.368 31.7812 71.6619C32.0995 72.9557 32.5239 73.0553 32.2056 74.3491C31.5691 75.842 30.0838 75.4439 28.7045 74.7472Z" fill="#2B292D"/>
<path d="M69.126 74.4485C67.7468 75.1452 67.5346 75.2447 66.5798 74.0504C65.7311 73.0551 67.0042 73.0551 67.2164 71.8608C67.5346 70.567 67.4285 70.567 67.7468 69.3726C68.0651 68.0788 67.4285 67.9792 67.7468 66.7849C68.0651 65.4911 68.7017 65.6901 69.0199 64.3963C69.3382 63.1024 68.2773 62.9034 68.5956 61.709C68.9138 60.4152 69.126 60.5147 69.3382 59.2208C69.6565 57.927 70.187 58.0265 70.5052 56.8322C70.8235 55.5383 70.2931 55.4388 70.5052 54.2445C70.8235 52.9506 71.354 53.0502 71.5662 51.8558C71.8845 50.562 70.6113 50.0644 71.7784 49.3677C73.1576 48.671 74.2185 48.3724 75.1733 49.5667C76.0221 50.562 74.1124 51.0596 73.9002 52.2539C73.5819 53.5478 74.4307 53.6473 74.1124 54.9412C73.7941 56.235 73.688 56.1355 73.3698 57.4294C73.0515 58.7232 72.6271 58.6237 72.4149 59.818C72.0966 61.1119 72.4149 61.1119 72.0966 62.4057C71.7784 63.6996 71.354 63.6 71.1418 64.7944C70.8235 66.0882 71.4601 66.1878 71.2479 67.4816C70.9296 68.7755 70.9296 68.7755 70.6113 69.9698C70.2931 71.2636 70.0809 71.1641 69.9748 72.458C69.9748 73.5528 70.2931 73.8513 69.126 74.4485Z" fill="#2B292D"/>
<path d="M51.6207 72.7567C50.4536 73.7519 49.6049 73.4534 48.4379 72.3586C47.3769 71.4628 48.6501 71.1642 48.6501 69.8704C48.6501 68.477 47.9074 68.477 47.9074 67.1831C47.9074 65.7898 48.544 65.7898 48.544 64.4959C48.544 63.1025 48.1196 63.1025 48.1196 61.8087C48.1196 60.4153 48.1196 60.4153 48.1196 59.1214C48.1196 57.7281 48.1196 57.7281 48.1196 56.4342C48.1196 55.0408 48.8622 55.0408 48.8622 53.747C48.8622 52.3536 48.7561 52.3536 48.7561 51.0597C48.7561 49.6664 47.5891 49.5668 48.6501 48.6711C49.8171 47.6758 50.3475 47.3772 51.5146 48.3725C52.5755 49.2682 51.4085 49.7659 51.4085 51.0597C51.4085 52.4531 51.3024 52.4531 51.3024 53.747C51.3024 55.0408 51.4085 55.1404 51.4085 56.4342C51.4085 57.8276 51.0902 57.8276 51.0902 59.1214C51.0902 60.5148 51.4085 60.5148 51.4085 61.8087C51.4085 63.2021 51.7268 63.2021 51.7268 64.4959C51.7268 65.8893 51.4085 65.8893 51.4085 67.1831C51.4085 68.5765 51.4085 68.477 51.7268 69.8704C52.1511 71.2638 52.6816 71.8609 51.6207 72.7567Z" fill="#2B292D"/>
<path d="M12.3662 53.8467C11.4114 53.8467 10.3505 53.8467 9.50171 53.6476C8.54688 53.4486 7.80422 52.7519 6.95548 52.3538C6.10673 51.9557 5.1519 51.7566 4.40924 51.1595C3.66659 50.5623 3.24222 49.7661 2.60566 49.0694C2.0752 48.3727 1.12036 47.7755 0.695986 46.9793C0.377707 46.1831 0.16552 45.1878 0.0594274 44.2921C-0.152759 43.3963 0.271614 42.5006 0.271614 41.6048C0.271614 40.7091 0.16552 39.8134 0.377707 38.9176C0.589893 38.0219 0.802079 37.1261 1.22645 36.3299C1.65082 35.5337 1.86301 34.5384 2.39348 33.8417C2.81785 33.0455 3.66659 32.4483 4.19706 31.6521C4.72752 30.8559 5.36408 30.1592 5.89455 29.4625C6.42501 28.7658 7.37985 28.2682 8.01641 27.5715C8.65297 26.8748 9.07734 26.0786 9.7139 25.3819C10.3505 24.6852 10.7748 23.7895 11.5175 23.1923C12.2601 22.5951 13.1089 22.0975 13.8515 21.5004C14.5942 20.9032 15.3368 20.306 16.0795 19.8084C16.8221 19.3108 17.777 18.9126 18.5196 18.415C19.3684 17.9174 20.3232 17.7183 21.172 17.3202C22.0207 16.8226 22.6573 16.1259 23.506 15.7278C24.3547 15.3297 25.2035 14.9316 26.1583 14.5334C27.0071 14.1353 27.9619 13.8368 28.8107 13.5382C29.6594 13.2396 30.6142 12.8415 31.5691 12.5429C32.5239 12.2443 33.3727 12.0453 34.3275 11.7467C35.2823 11.5476 36.2372 11.5476 37.192 11.3486C38.1468 11.1495 38.9956 10.6519 39.9504 10.5524C40.9053 10.4528 41.9662 10.8509 42.921 10.7514C43.8759 10.6519 44.8307 10.7514 45.7855 10.6519C46.8465 10.3533 47.8013 9.85567 48.7561 9.85567C49.711 9.85567 50.6658 9.65662 51.5146 9.65662C52.4694 9.65662 53.3182 10.3533 54.273 10.4528C55.2278 10.5524 56.0766 10.6519 57.0314 10.8509C57.9862 10.9505 58.835 11.2491 59.7898 11.3486C60.7447 11.5476 61.6995 11.1495 62.6543 11.3486C63.6092 11.5476 64.4579 11.7467 65.3067 12.0453C66.1554 12.3438 67.0042 12.8415 67.8529 13.1401C68.7017 13.4386 69.6565 13.5382 70.5052 13.9363C71.354 14.2349 72.0966 14.9316 72.9454 15.3297C73.7941 15.7278 74.855 15.6282 75.7038 16.0264C76.5525 16.4245 77.083 17.3202 77.8257 17.7183C78.5683 18.216 79.6292 18.3155 80.3719 18.8131C81.1145 19.3108 81.8572 19.8084 82.5998 20.4056C83.3425 20.9032 84.1912 21.4008 84.8278 21.998C85.5705 22.5951 85.5704 23.7895 86.207 24.3866C86.8436 24.9838 87.9045 25.2824 88.5411 25.8795C89.1776 26.4767 89.4959 27.472 90.0264 28.0691C90.6629 28.7658 91.2995 29.363 91.8299 30.0597C92.3604 30.7564 92.997 31.4531 93.5274 32.1498C94.0579 32.8464 94.2701 33.7422 94.6945 34.5384C95.1188 35.3346 95.4371 36.1308 95.8615 36.9271C96.2859 37.7233 97.2407 38.3204 97.4529 39.2162C97.6651 40.1119 97.1346 41.0077 97.1346 41.9034C97.1346 42.7992 97.6651 43.6949 97.4529 44.5907C97.2407 45.4864 96.1798 46.0836 95.8615 46.8798C95.4371 47.676 95.331 48.5717 94.8005 49.2684C94.2701 49.9651 93.7396 50.7613 93.1031 51.3585C92.3604 51.9557 91.2995 51.9557 90.4507 52.3538C89.602 52.7519 88.8593 53.3491 88.0106 53.5481C87.1618 53.7472 86.207 54.0457 85.2522 54.0457C83.873 54.0457 83.873 53.4486 82.4938 53.4486C81.1145 53.4486 81.1145 53.4486 79.7353 53.4486C78.3561 53.4486 78.3561 53.5481 76.9769 53.5481C75.5977 53.5481 75.5977 53.349 74.2185 53.349C72.8393 53.349 72.8393 53.4486 71.4601 53.4486C70.0809 53.4486 70.0809 54.1453 68.7017 54.1453C67.3224 54.1453 67.3224 53.9462 65.9432 53.9462C64.564 53.9462 64.564 53.6476 63.1848 53.6476C61.8056 53.6476 61.8056 53.8467 60.4264 53.8467C59.0472 53.8467 59.0472 53.2495 57.668 53.2495C56.2888 53.2495 56.2888 54.0457 54.9095 54.0457C53.5303 54.0457 53.5303 53.8467 52.1511 53.8467C50.7719 53.8467 50.7719 53.9462 49.3927 53.9462C48.0135 53.9462 48.0135 53.4486 46.6343 53.4486C45.2551 53.4486 45.2551 53.349 43.8759 53.349C42.4967 53.349 42.4967 53.8467 41.1174 53.8467C39.7382 53.8467 39.7382 53.6476 38.359 53.6476C36.9798 53.6476 36.9798 54.0457 35.6006 54.0457C34.2214 54.0457 34.2214 53.9462 32.8422 53.9462C31.463 53.9462 31.463 53.2495 30.0838 53.2495C28.7046 53.2495 28.7046 53.9462 27.3253 53.9462C25.9461 53.9462 25.9461 53.9462 24.5669 53.9462C23.1877 53.9462 23.1877 53.4486 21.8085 53.4486C20.4293 53.4486 20.4293 53.6476 19.0501 53.6476C17.6709 53.6476 17.6709 53.8467 16.2917 53.8467C13.7454 54.0457 13.7454 53.8467 12.3662 53.8467Z" fill="#F8CF61"/>
<path d="M59.0472 9.6565C59.0472 10.6518 58.835 11.448 58.5167 12.3437C58.1984 13.2395 58.1984 14.3343 57.5619 15.031C57.0314 15.7277 56.2888 16.5239 55.44 17.121C54.6974 17.6187 53.4242 17.3201 52.4694 17.6187C51.5146 17.9173 50.7719 19.0121 49.711 19.0121C48.6501 19.0121 47.9074 18.0168 46.9526 17.7182C45.9977 17.4196 45.149 17.2206 44.4063 16.6234C43.6637 16.1258 42.4967 15.8272 41.8601 15.031C41.3296 14.3343 41.4357 13.14 41.1174 12.2442C40.7992 11.3485 40.587 10.5522 40.587 9.6565C40.587 8.66123 40.3748 7.76548 40.6931 6.86974C41.0114 5.974 41.8601 5.37683 42.4967 4.68014C43.0271 3.98345 43.3454 2.88865 44.0881 2.39102C44.8307 1.89338 45.8916 1.69433 46.8465 1.39574C47.8013 1.09716 48.6501 0.5 49.711 0.5C50.7719 0.5 51.6207 1.29622 52.4694 1.5948C53.4242 1.89338 54.6974 1.69433 55.44 2.19196C56.1827 2.6896 56.8192 3.58534 57.4558 4.38156C57.9862 5.07825 58.835 5.974 59.0472 6.77021C59.4716 7.66596 59.0472 8.76076 59.0472 9.6565Z" fill="#F36B7F"/>
</g>
<defs>
<clipPath id="clip0">
<rect y="0.5" width="97.503" height="100" fill="white"/>
</clipPath>
</defs>
</svg>
