<svg width="104" height="100" viewBox="0 0 104 100" fill="none" xmlns="http://www.w3.org/2000/svg">
<path d="M46.0426 26.82C46.4394 25.8509 47.3124 26.5964 48.5028 26.5964C49.6138 26.5964 49.6138 26.9691 50.7249 26.9691C51.8359 26.9691 51.8359 27.1182 52.947 27.1182C54.058 27.1182 54.058 27.1928 55.1691 27.1928C56.2801 27.1928 56.2801 26.82 57.3912 26.82C58.5022 26.82 58.5022 26.9691 59.6132 26.9691C60.7243 26.9691 60.7243 26.8946 61.8353 26.8946C62.9464 26.8946 62.9464 26.5964 64.0574 26.5964C65.1685 26.5964 65.1685 26.5218 66.2795 26.5218C67.3906 26.5218 67.3906 26.8946 68.581 26.8946C69.692 26.8946 69.692 26.6709 70.8031 26.6709C71.9141 26.6709 71.9141 26.7455 73.1045 26.7455C74.2156 26.7455 74.2156 26.9691 75.406 26.9691C76.517 26.9691 76.517 26.9691 77.7074 26.9691C78.8185 26.9691 78.8185 26.8946 79.9295 26.8946C81.0406 26.8946 81.0406 26.82 82.231 26.82C83.342 26.82 83.342 26.8946 84.5324 26.8946C85.6435 26.8946 85.6435 26.9691 86.8339 26.9691C87.9449 26.9691 87.9449 26.4473 89.1353 26.4473C90.2464 26.4473 91.04 25.7018 91.4368 26.6709C91.8336 27.6401 90.4845 27.3419 89.6115 28.0129C88.7385 28.7584 88.6592 28.6093 87.7862 29.2802C86.9132 30.0257 87.1513 30.1748 86.2784 30.9203C85.4054 31.6658 85.6435 31.8149 84.7705 32.5604C83.8976 33.3059 83.6595 33.0077 82.7865 33.7533C81.9135 34.4988 82.3103 34.8715 81.5167 35.5425C80.6438 36.288 80.7231 36.288 79.9295 37.0335C79.0566 37.779 78.6598 37.3317 77.8662 38.0772C76.9932 38.8227 76.9138 38.6736 76.1202 39.4191C75.2473 40.1646 75.3266 40.1646 74.4537 40.9101C73.5807 41.6556 73.8188 41.8047 72.9458 42.5502C72.0728 43.2957 71.9935 43.1466 71.1205 43.8921C70.2476 44.6376 70.2476 44.5631 69.3746 45.234C68.5016 45.9795 69.0571 47.1724 67.9461 47.1724C66.7557 47.1724 66.9144 46.3523 66.1208 45.5322C65.2478 44.7867 65.2478 44.7867 64.4542 44.0412C63.5813 43.2957 63.5813 43.2957 62.7083 42.5502C61.8353 41.8047 62.0734 41.5811 61.2798 40.761C60.4068 40.0155 60.5656 39.8664 59.6926 39.1209C58.8196 38.3754 59.0577 38.2263 58.1848 37.4062C57.3118 36.6607 57.3912 36.5862 56.5182 35.8407C55.6452 35.0952 55.1691 35.5425 54.2961 34.797C53.4231 34.0515 53.6612 33.8278 52.8676 33.0077C51.9946 32.2622 52.2327 32.0386 51.3598 31.2931C50.4868 30.5476 50.1693 30.8458 49.3757 30.0257C48.5028 29.2802 48.8202 28.982 47.7885 28.4602C46.5981 27.9383 45.6458 27.8638 46.0426 26.82Z" fill="#F8CF61"/>
<path d="M95.2461 5.1258C96.0397 5.1258 96.8333 4.90215 97.5476 5.05125C98.2618 5.20035 98.8967 5.79676 99.5316 6.09496C100.166 6.46771 100.563 7.06412 101.119 7.58597C101.674 8.10783 102.15 8.55513 102.547 9.15154C102.944 9.74794 103.579 10.2698 103.817 10.9407C103.976 11.6117 103.738 12.3572 103.738 13.1027C103.738 13.8482 103.579 14.5192 103.341 15.1156C103.182 15.7865 103.103 16.532 102.785 17.1284C102.389 17.7249 101.754 18.1722 101.277 18.694C100.722 19.2159 100.166 19.5886 99.5316 19.9614C98.8967 20.3341 98.1824 20.6323 97.4682 20.7814C96.754 20.9305 96.0397 21.3778 95.2461 21.3778C94.4525 21.3778 93.8176 20.7069 93.1034 20.5578C92.3891 20.4087 91.7542 20.0359 91.1194 19.7377C90.4845 19.365 89.9289 18.9922 89.4528 18.4704C88.8973 17.9485 88.2624 17.6503 87.8656 16.9793C87.4688 16.3829 87.4688 15.712 87.2307 14.9665C87.072 14.2955 86.3577 13.6991 86.3577 12.9536C86.3577 12.2081 87.072 11.6117 87.2307 10.9407C87.3894 10.2698 87.1513 9.37519 87.5481 8.77878C87.9449 8.18238 88.5798 7.66052 89.056 7.21322C89.6115 6.69137 90.0877 6.09496 90.7226 5.72221C91.3574 5.34946 92.2304 5.57311 93.024 5.34946C93.8176 5.34946 94.4525 5.1258 95.2461 5.1258Z" fill="#F36B7F"/>
<path d="M68.0255 47.9925C67.708 47.9925 67.3112 48.2161 67.0731 47.9925C66.2795 47.2469 66.3589 47.1724 65.5653 46.4269C64.7717 45.6814 64.5336 45.905 63.74 45.1595C62.9464 44.414 62.9464 44.3395 62.1528 43.6685C61.3592 42.923 61.3592 42.923 60.5656 42.1775C59.772 41.432 60.1688 41.0592 59.3752 40.3137C58.5816 39.5682 58.2641 39.8664 57.4705 39.1209C56.6769 38.3754 56.8356 38.2263 55.9627 37.4808C55.1691 36.7353 54.8516 37.0335 54.058 36.288C53.2644 35.5425 53.2644 35.5425 52.4708 34.797C51.6772 34.0515 52.074 33.6787 51.2804 32.9332C50.4868 32.1877 50.2487 32.4114 49.3757 31.6659C48.5821 30.9204 48.8996 30.6222 48.106 29.8767C47.3124 29.1312 46.8362 29.5785 46.0426 28.833C45.249 28.0874 45.5664 27.7892 44.7728 27.0437C43.9792 26.2982 43.9792 26.2982 43.1856 25.5527C42.392 24.8072 42.5507 24.5836 41.7571 23.8381C40.9635 23.0926 40.5667 23.4653 39.7731 22.7198C38.9795 21.9743 39.2176 21.7506 38.3446 21.0051C37.551 20.2596 37.3129 20.4833 36.5193 19.7378C35.7257 18.9923 35.567 19.1414 34.7734 18.3959C34.456 18.0977 34.9321 17.5013 35.0909 17.054C35.2496 16.6067 35.3289 16.6067 35.8051 16.6067C36.9161 16.6067 36.9161 16.5321 38.1065 16.5321C39.2176 16.5321 39.2176 16.6067 40.408 16.6067C41.5191 16.6067 41.5191 16.383 42.7095 16.383C43.8205 16.383 43.8205 16.6067 45.0109 16.6067C46.122 16.6067 46.122 16.3085 47.3124 16.3085C48.4234 16.3085 48.4234 16.6812 49.6138 16.6812C50.7249 16.6812 50.7249 16.3085 51.9153 16.3085C53.0263 16.3085 53.0263 16.3085 54.2167 16.3085C55.3278 16.3085 55.3278 16.2339 56.5182 16.2339C57.6292 16.2339 57.6292 16.6812 58.8196 16.6812C59.9307 16.6812 59.9307 16.0848 61.1211 16.0848C62.2321 16.0848 62.2321 16.0848 63.4225 16.0848C64.5336 16.0848 64.5336 16.383 65.724 16.383C66.835 16.383 66.835 16.1594 68.0255 16.1594C69.1365 16.1594 69.1365 16.2339 70.3269 16.2339C71.438 16.2339 71.438 16.2339 72.6284 16.2339C73.7394 16.2339 73.7394 16.2339 74.9298 16.2339C76.0409 16.2339 76.0409 16.3085 77.2313 16.3085C78.3423 16.3085 78.3423 16.0848 79.5327 16.0848C80.6438 16.0848 80.6438 16.5321 81.8342 16.5321C82.9452 16.5321 82.9452 16.5321 84.1356 16.5321C85.2467 16.5321 85.2467 16.383 86.4371 16.383C87.5481 16.383 87.5481 16.7558 88.7385 16.7558C89.8496 16.7558 89.8496 16.5321 91.04 16.5321C92.1511 16.5321 92.151 16.6812 93.3415 16.6812C94.4525 16.6812 94.4525 16.0103 95.6429 16.0103C96.8333 16.0103 96.8333 16.5321 97.9444 16.5321C99.1348 16.5321 99.1348 16.3085 100.246 16.3085C101.357 16.3085 101.436 16.0103 102.547 16.0103C103.023 16.0103 103.341 16.6812 103.5 17.1285C103.658 17.5758 103.896 18.1722 103.5 18.4704C102.627 19.2159 102.468 18.9923 101.595 19.7378C100.722 20.4833 100.563 20.3342 99.7697 21.0797C98.8967 21.8252 99.0554 21.9743 98.1824 22.6453C97.3095 23.3908 97.5476 23.6144 96.6746 24.2854C95.8016 25.0309 95.8016 24.9563 94.9287 25.7018C94.0557 26.4473 94.2144 26.5219 93.3415 27.2674C92.4685 28.0129 92.0717 27.5656 91.1987 28.3111C90.3258 29.0566 90.7226 29.4294 89.8496 30.1749C88.9766 30.9204 88.8179 30.6967 87.9449 31.4422C87.072 32.1877 87.1513 32.2623 86.2784 33.0078C85.4054 33.7533 85.2467 33.6042 84.4531 34.3497C83.5801 35.0952 83.4214 34.9461 82.5484 35.6171C81.6755 36.3626 81.9135 36.5862 81.0406 37.3317C80.1676 38.0772 80.1676 38.0772 79.2946 38.8227C78.4217 39.5682 78.263 39.4191 77.4694 40.1646C76.5964 40.9101 76.8345 41.1338 75.9615 41.8793C75.0885 42.6248 75.1679 42.6248 74.2949 43.3703C73.422 44.1158 73.0252 43.7431 72.2316 44.4886C71.3586 45.2341 71.7554 45.6068 70.8824 46.3523C70.0095 47.0978 69.8507 46.8742 68.9778 47.6197C68.5016 47.9925 68.3429 47.9925 68.0255 47.9925ZM38.6621 18.3959C38.2653 19.365 39.7731 19.0668 40.5667 19.8123C41.3603 20.5578 41.281 20.6324 42.0746 21.3779C42.8682 22.1234 43.1063 21.8998 43.8999 22.6453C44.6935 23.3908 44.6935 23.4653 45.4871 24.2108C46.2807 24.9563 46.2807 24.9563 47.1536 25.7018C47.9472 26.4473 47.5504 26.8946 48.3441 27.6401C49.1377 28.3856 49.4551 28.162 50.2487 28.9075C51.0423 29.653 50.9629 29.8021 51.7566 30.5476C52.5502 31.2931 52.8676 30.9949 53.6612 31.7404C54.4548 32.4859 54.4548 32.4859 55.2484 33.2314C56.042 33.9769 55.6452 34.3497 56.4388 35.0952C57.2324 35.8407 57.5499 35.6171 58.3435 36.3626C59.1371 37.1081 58.8196 37.4063 59.6926 38.1518C60.4862 38.8973 60.9624 38.45 61.8353 39.1955C62.6289 39.941 62.3115 40.2392 63.1845 40.9847C63.9781 41.7302 63.9781 41.7302 64.7717 42.4757C65.5653 43.2212 65.4066 43.4449 66.2002 44.1904C66.9938 44.9359 66.9144 45.3086 68.1048 45.3086C69.2159 45.3086 69.0571 44.8613 69.8507 44.1158C70.6443 43.3703 70.4856 43.2212 71.2792 42.4757C72.0728 41.7302 71.9141 41.5811 72.7871 40.9101C73.5807 40.1646 74.1362 40.761 74.9298 40.0155C75.7234 39.27 75.7234 39.27 76.5964 38.5991C77.39 37.8536 77.3106 37.779 78.1836 37.1081C78.9772 36.3626 79.0566 36.4371 79.8502 35.6916C80.6438 34.9461 80.4851 34.797 81.358 34.126C82.1516 33.3805 82.3103 33.5296 83.1833 32.8587C83.9769 32.1132 83.7388 31.8895 84.6118 31.2186C85.4054 30.4731 85.7228 30.7713 86.5165 30.1003C87.3101 29.3548 87.072 29.1312 87.9449 28.3856C88.7385 27.6401 88.7385 27.6401 89.6115 26.9692C90.4051 26.2237 90.4051 26.2237 91.1987 25.4782C91.9923 24.7327 92.3891 25.1054 93.1827 24.3599C93.9763 23.6144 93.5795 23.2417 94.4525 22.4962C95.2461 21.7506 95.2461 21.7506 96.1191 21.0797C96.9127 20.3342 97.1508 20.5578 98.0237 19.8869C98.8173 19.1414 99.9284 19.5141 99.4522 18.545C99.0554 17.5758 98.4999 18.6195 97.3888 18.6195C96.2778 18.6195 96.2778 18.6195 95.1667 18.6195C94.0557 18.6195 94.0557 18.6195 92.9446 18.6195C91.8336 18.6195 91.8336 18.545 90.7226 18.545C89.6115 18.545 89.6115 18.7686 88.5005 18.7686C87.3894 18.7686 87.3894 18.3213 86.2784 18.3213C85.1673 18.3213 85.1673 18.3213 84.0563 18.3213C82.9452 18.3213 82.9452 18.4704 81.8342 18.4704C80.7231 18.4704 80.7231 18.0977 79.6121 18.0977C78.501 18.0977 78.501 18.3213 77.39 18.3213C76.2789 18.3213 76.2789 18.1722 75.1679 18.1722C74.0569 18.1722 74.0569 18.8432 72.9458 18.8432C71.8348 18.8432 71.8348 18.3213 70.7237 18.3213C69.6127 18.3213 69.6127 18.545 68.5016 18.545C67.3906 18.545 67.3906 18.8432 66.2795 18.8432C65.1685 18.8432 65.1685 18.3959 64.0574 18.3959C62.9464 18.3959 62.9464 18.7686 61.8353 18.7686C60.7243 18.7686 60.7243 18.545 59.6132 18.545C58.5022 18.545 58.5022 18.3959 57.3911 18.3959C56.2801 18.3959 56.2801 18.545 55.1691 18.545C54.058 18.545 54.058 18.8432 52.947 18.8432C51.8359 18.8432 51.8359 18.7686 50.7249 18.7686C49.6138 18.7686 49.6138 18.9177 48.5028 18.9177C47.3917 18.9177 47.3917 18.3213 46.2807 18.3213C45.1696 18.3213 45.1696 18.8432 44.0586 18.8432C42.9475 18.8432 42.8682 18.8432 41.8365 18.6195C39.7731 18.1722 39.0589 17.4267 38.6621 18.3959Z" fill="#2B292D"/>
<path d="M69.3746 95.1084C68.5016 95.8539 67.708 95.7793 66.8351 94.9593C66.0415 94.2137 66.597 93.841 66.597 92.7973C66.597 91.679 66.597 91.679 66.597 90.6353C66.597 89.5171 66.9144 89.5171 66.9144 88.4734C66.9144 87.3551 66.5176 87.3551 66.5176 86.3114C66.5176 85.1931 66.9938 85.1931 66.9938 84.1494C66.9938 83.0312 66.4383 83.0312 66.4383 81.9874C66.4383 80.8692 66.6764 80.8692 66.6764 79.8255C66.6764 78.7072 66.6764 78.7072 66.6764 77.6635C66.6764 76.5453 66.7557 76.5453 66.7557 75.5016C66.7557 74.3833 66.4383 74.3833 66.4383 73.3396C66.4383 72.2213 67.0732 72.2213 67.0732 71.1776C67.0732 70.0594 66.9938 70.0594 66.9938 69.0157C66.9938 67.8974 66.4383 67.8974 66.4383 66.8537C66.4383 65.7354 66.6764 65.7354 66.6764 64.6917C66.6764 63.5735 66.6764 63.5735 66.6764 62.5297C66.6764 61.486 66.7557 61.4115 66.7557 60.3678C66.7557 59.2495 66.8351 59.2495 66.8351 58.2058C66.8351 57.0876 66.5176 57.0876 66.5176 56.0439C66.5176 54.9256 66.5176 54.9256 66.5176 53.8819C66.5176 52.7636 66.6764 52.7636 66.6764 51.7199C66.6764 50.6017 66.7557 50.6017 66.7557 49.5579C66.7557 48.4397 66.0415 48.216 66.8351 47.4705C67.708 46.725 68.3429 46.5759 69.1365 47.3214C69.9301 48.0669 69.0572 48.4397 69.0572 49.5579C69.0572 50.6762 68.7397 50.6762 68.7397 51.7199C68.7397 52.8382 69.3746 52.8382 69.3746 53.8819C69.3746 55.0001 68.9778 55.0001 68.9778 56.0439C68.9778 57.1621 69.2952 57.1621 69.2952 58.2058C69.2952 59.3241 68.9778 59.3241 68.9778 60.3678C68.9778 61.486 68.8191 61.486 68.8191 62.5297C68.8191 63.648 68.8191 63.648 68.8191 64.6917C68.8191 65.81 69.2952 65.81 69.2952 66.8537C69.2952 67.9719 68.7397 67.9719 68.7397 69.0157C68.7397 70.1339 69.1365 70.1339 69.1365 71.1776C69.1365 72.2959 69.5333 72.2959 69.5333 73.3396C69.5333 74.4578 69.1365 74.4578 69.1365 75.5016C69.1365 76.6198 69.2159 76.6198 69.2159 77.6635C69.2159 78.7818 69.0572 78.7818 69.0572 79.8255C69.0572 80.8692 69.5333 80.9437 69.5333 81.9874C69.5333 83.1057 69.454 83.1057 69.454 84.1494C69.454 85.2677 69.1365 85.2677 69.1365 86.3114C69.1365 87.4296 68.7397 87.4296 68.7397 88.4734C68.7397 89.5916 69.0572 89.5916 69.0572 90.6353C69.0572 91.7536 68.9778 91.7536 69.2159 92.7973C69.6127 93.9901 70.1682 94.3629 69.3746 95.1084Z" fill="#2B292D"/>
<path d="M93.5137 93.8797C94.3073 94.6998 94.2279 95.4453 93.3549 96.2654C92.5613 97.0109 92.1645 96.489 91.0535 96.489C89.8631 96.489 89.8631 96.489 88.752 96.489C87.5616 96.489 87.5616 96.1908 86.4506 96.1908C85.2602 96.1908 85.2602 96.5636 84.1491 96.5636C82.9587 96.5636 82.9587 96.1163 81.8477 96.1163C80.6572 96.1163 80.6572 96.6381 79.5462 96.6381C78.3558 96.6381 78.3558 96.4145 77.2448 96.4145C76.0543 96.4145 76.0543 96.4145 74.9433 96.4145C73.7529 96.4145 73.7529 96.3399 72.6418 96.3399C71.4514 96.3399 71.4514 96.6381 70.3404 96.6381C69.15 96.6381 69.15 96.0417 68.0389 96.0417C66.8485 96.0417 66.8485 96.1163 65.7375 96.1163C64.5471 96.1163 64.5471 96.6381 63.436 96.6381C62.2456 96.6381 62.2456 96.4145 61.1346 96.4145C59.9442 96.4145 59.9442 96.4145 58.8331 96.4145C57.7221 96.4145 57.6427 96.3399 56.5317 96.3399C55.3413 96.3399 55.3413 96.2654 54.2302 96.2654C53.0398 96.2654 53.0398 96.5636 51.9288 96.5636C50.7384 96.5636 50.7384 96.5636 49.6273 96.5636C48.4369 96.5636 48.4369 96.4145 47.3259 96.4145C46.1354 96.4145 46.1354 96.3399 45.0244 96.3399C43.834 96.3399 43.5959 97.0109 42.8023 96.2654C42.0087 95.4453 41.85 94.8489 42.6436 94.1034C43.4372 93.3579 43.834 94.1779 45.0244 94.1779C46.2148 94.1779 46.2148 94.4761 47.3259 94.4761C48.5163 94.4761 48.5163 93.8797 49.6273 93.8797C50.8177 93.8797 50.8177 94.2525 51.9288 94.2525C53.1192 94.2525 53.1192 93.9543 54.2302 93.9543C55.4206 93.9543 55.4206 94.2525 56.5317 94.2525C57.7221 94.2525 57.7221 94.4016 58.8331 94.4016C60.0235 94.4016 60.0235 94.4016 61.1346 94.4016C62.325 94.4016 62.325 93.9543 63.436 93.9543C64.6264 93.9543 64.6264 94.4761 65.7375 94.4761C66.9279 94.4761 66.9279 94.1034 68.0389 94.1034C69.2293 94.1034 69.2293 93.7306 70.3404 93.7306C71.5308 93.7306 71.5308 94.1034 72.6418 94.1034C73.8323 94.1034 73.8322 94.0288 74.9433 94.0288C76.1337 94.0288 76.1337 94.1779 77.2448 94.1779C78.3558 94.1779 78.4352 93.7306 79.5462 93.7306C80.7366 93.7306 80.7366 93.8052 81.8477 93.8052C83.0381 93.8052 83.0381 94.1034 84.1491 94.1034C85.3395 94.1034 85.3395 94.4761 86.4506 94.4761C87.641 94.4761 87.641 94.1779 88.752 94.1779C89.9424 94.1779 89.9424 94.2525 91.0535 94.0288C92.3232 93.6561 92.72 93.1342 93.5137 93.8797Z" fill="#2B292D"/>
<path d="M22.6793 51.4949C22.6793 51.4949 22.6793 51.4196 22.6793 51.4949C21.9631 51.4196 21.2469 51.8713 20.6103 51.8713C19.8941 51.7961 19.2575 51.5702 18.5413 51.4196C17.8251 51.2691 17.1089 51.3443 16.4723 51.1938C15.8357 50.9679 15.3582 50.2151 14.7216 49.9139C14.085 49.6881 13.4484 49.3869 12.8914 49.0858C12.2548 48.7847 11.6977 48.4082 11.1407 48.1071C10.5837 47.7307 9.70831 47.6554 9.23086 47.279C8.67382 46.8273 8.43509 46.1497 7.87806 45.698C7.4006 45.2463 7.0823 44.644 6.60484 44.117C6.12738 43.59 5.4112 43.3642 5.01331 42.8372C4.61543 42.3102 4.0584 41.7832 3.74009 41.2562C3.42179 40.6539 3.74009 39.8258 3.42179 39.2235C3.18306 38.6212 2.54645 38.1695 2.30772 37.4919C2.06899 36.8897 2.30772 36.1368 2.14857 35.5345C1.98941 34.9323 1.43238 34.33 1.3528 33.6524C1.27323 32.9749 1.43238 32.2973 1.43238 31.695C1.43238 30.1893 0.875347 30.114 1.83026 28.9095C2.3873 28.0813 2.54645 28.6836 3.66052 28.6836C4.69501 28.6836 4.69501 28.6836 5.80908 28.6836C6.84357 28.6836 6.84357 28.6083 7.95764 28.6083C8.99213 28.6083 8.99213 28.8342 10.1062 28.8342C11.1407 28.8342 11.1407 28.6083 12.2548 28.6083C13.2892 28.6083 13.2892 28.8342 14.4033 28.8342C15.4378 28.8342 15.4378 28.9095 16.5519 28.9095C17.5864 28.9095 17.5864 28.6836 18.7004 28.6836C19.7349 28.6836 19.7349 28.4578 20.849 28.4578C21.8835 28.4578 21.8835 28.6836 22.9976 28.6836C24.032 28.6836 24.032 29.1353 25.1461 29.1353C26.1806 29.1353 26.1806 28.4578 27.2947 28.4578C28.3292 28.4578 28.3292 29.1353 29.4432 29.1353C30.4777 29.1353 30.4777 29.06 31.5918 29.06C32.6263 29.06 32.6263 29.06 33.7404 29.06C34.7748 29.06 34.7748 28.7589 35.8889 28.7589C36.9234 28.7589 36.9234 28.4578 38.0375 28.4578C39.072 28.4578 39.072 28.8342 40.186 28.8342C41.2205 28.8342 41.2205 29.06 42.3346 29.06C43.3691 29.06 43.6078 28.1566 44.2444 28.9848C45.1198 30.2646 44.1648 30.3399 44.1648 31.8456C44.1648 32.5231 44.0853 33.1254 44.0853 33.803C44.0057 34.4806 44.0853 35.0828 43.9261 35.7604C43.767 36.438 43.4487 36.9649 43.2895 37.6425C43.0508 38.2448 42.8916 38.8471 42.5733 39.4493C42.3346 40.0516 42.3346 40.8045 42.0163 41.3315C41.698 41.9337 41.4593 42.536 41.0614 43.063C40.6635 43.59 40.186 44.117 39.7086 44.5687C39.2311 45.0957 38.5149 45.3216 38.0375 45.7733C37.56 46.225 37.4009 47.0531 36.8438 47.4295C36.2868 47.8812 35.7298 48.2577 35.1727 48.5588C34.6157 48.9352 33.8199 48.9352 33.1833 49.2364C32.5467 49.5375 32.1488 50.2151 31.5122 50.4409C30.8756 50.6668 30.239 51.0432 29.6024 51.2691C28.9658 51.4949 28.0904 51.0432 27.4538 51.1938C26.8172 51.3443 26.101 51.5702 25.4644 51.6455C24.032 51.5702 23.3954 51.4949 22.6793 51.4949Z" fill="#F36B7F"/>
<path d="M23.7933 98.4726C22.9179 99.2255 22.5201 99.3007 21.6447 98.5479C20.849 97.8703 21.8834 97.6445 21.8834 96.6658C21.8834 95.6871 21.5651 95.6871 21.5651 94.6331C21.5651 93.6544 21.4856 93.6544 21.4856 92.6004C21.4856 91.6217 21.2468 91.6217 21.2468 90.5677C21.2468 89.589 21.8039 89.589 21.8039 88.535C21.8039 87.5563 21.7243 87.5563 21.7243 86.5023C21.7243 85.5236 21.3264 85.5236 21.3264 84.4696C21.3264 83.4909 21.8834 83.4909 21.8834 82.4369C21.8834 81.4582 21.3264 81.4582 21.3264 80.4043C21.3264 79.4256 21.8039 79.4255 21.8039 78.3716C21.8039 77.3929 21.4856 77.3929 21.4856 76.3389C21.4856 75.3602 21.1673 75.3602 21.1673 74.3062C21.1673 73.3275 21.8039 73.3275 21.8039 72.2735C21.8039 71.2948 21.4856 71.2948 21.4856 70.2408C21.4856 69.2621 21.2468 69.2621 21.2468 68.2081C21.2468 67.2294 21.4856 67.2294 21.4856 66.1754C21.4856 65.1967 21.3264 65.1967 21.3264 64.1427C21.3264 63.164 21.2468 63.164 21.2468 62.11C21.2468 61.1313 21.4856 61.1313 21.4856 60.0774C21.4856 59.0987 21.1673 59.0986 21.1673 58.0447C21.1673 57.066 21.406 57.066 21.406 56.012C21.406 55.0333 21.6447 55.0333 21.6447 53.9793C21.6447 53.0006 21.406 53.0006 21.406 51.9466C21.406 50.9679 20.3715 50.3656 21.1673 49.688C22.0426 48.9352 22.7588 49.3869 23.6341 50.1398C24.4299 50.8173 23.6341 50.9679 23.6341 51.9466C23.6341 52.9253 23.7933 52.9253 23.7933 53.9793C23.7933 54.958 23.7137 54.958 23.7137 56.012C23.7137 56.9907 23.8729 56.9907 23.8729 58.0447C23.8729 59.0234 23.8729 59.0234 23.8729 60.0774C23.8729 61.0561 23.5545 61.0561 23.5545 62.11C23.5545 63.0887 23.7933 63.0887 23.7933 64.1427C23.7933 65.1214 24.1912 65.1214 24.1912 66.1754C24.1912 67.1541 24.1912 67.1541 24.1912 68.2081C24.1912 69.1868 23.5545 69.1868 23.5545 70.2408C23.5545 71.2195 23.7137 71.2195 23.7137 72.2735C23.7137 73.2522 23.7933 73.2522 23.7933 74.3062C23.7933 75.2849 24.3503 75.2849 24.3503 76.3389C24.3503 77.3176 24.032 77.3176 24.032 78.3716C24.032 79.3503 24.2707 79.3503 24.2707 80.4043C24.2707 81.383 23.9524 81.383 23.9524 82.4369C23.9524 83.4156 23.7137 83.4156 23.7137 84.4696C23.7137 85.4483 23.7137 85.4483 23.7137 86.5023C23.7137 87.481 24.2707 87.481 24.2707 88.535C24.2707 89.5137 24.1912 89.5137 24.1912 90.5677C24.1912 91.5464 24.2707 91.5464 24.2707 92.6004C24.2707 93.5791 24.3503 93.5791 24.3503 94.6331C24.3503 95.6118 23.7933 95.6871 23.9524 96.6658C24.1116 97.5692 24.589 97.795 23.7933 98.4726Z" fill="#2B292D"/>
<path d="M22.7588 51.796C22.0426 51.796 21.3264 52.0218 20.6898 51.9465C19.9736 51.8712 19.337 51.4948 18.7004 51.4195C17.9842 51.269 17.2681 51.4948 16.5519 51.3442C15.9153 51.1937 15.3582 50.5914 14.7216 50.3656C14.085 50.1397 13.2892 50.215 12.6526 49.9138C12.016 49.6127 11.6181 49.0104 10.9815 48.634C10.4245 48.2576 9.94704 47.8059 9.39 47.4294C8.83297 47.053 7.95763 46.9777 7.48017 46.526C7.00271 46.0743 6.92314 45.2462 6.44568 44.7192C5.96822 44.2675 4.93373 44.1922 4.53585 43.6652C4.13797 43.1382 4.05839 42.3854 3.66051 41.8584C3.26263 41.3314 2.94432 40.7291 2.62602 40.2021C2.30771 39.5998 2.46687 38.847 2.22814 38.2447C1.90983 37.6424 1.3528 37.1154 1.19364 36.5131C1.03449 35.9109 0.63661 35.3086 0.557034 34.631C0.397881 34.0287 0.477458 33.3512 0.397881 32.6736C0.318305 31.9961 0.159153 31.3938 0.159153 30.7162C0.159153 29.7375 0.159153 29.7375 0.159153 28.7588C0.159153 27.7801 0.318305 27.7801 0.318305 26.8014C0.318305 25.8227 0 25.8227 0 24.844C0 23.8653 0.0795763 23.8653 0.0795763 22.8866C0.0795763 21.9079 0.716187 21.9079 0.716187 20.9292C0.716187 19.9505 0.63661 19.9505 0.63661 18.9718C0.63661 17.9931 0.63661 17.9931 0.63661 17.0144C0.63661 16.0357 0.716187 16.0357 0.716187 15.057C0.716187 14.0783 0 14.0783 0 13.0996C0 12.1209 0.477458 12.1209 0.477458 11.1422C0.477458 10.1635 0.159153 10.1635 0.159153 9.18475C0.159153 8.20605 0.397881 8.20605 0.397881 7.22734C0.397881 6.39921 0.159153 6.39921 0.159153 5.42051C0.159153 4.4418 0.159153 4.4418 0.159153 3.4631C0.159153 2.4844 0.0795763 2.4844 0.0795763 1.5057C0.0795763 0.903418 0.795763 0.451709 1.51195 0.451709C2.54644 0.451709 2.54644 0.225854 3.66051 0.225854C4.695 0.225854 4.695 0.677563 5.80907 0.677563C6.84356 0.677563 6.84356 0.602279 7.95763 0.602279C8.99212 0.602279 8.99212 0.376424 10.1062 0.376424C11.1407 0.376424 11.1407 0.526994 12.2547 0.526994C13.2892 0.526994 13.2892 0.752848 14.4033 0.752848C15.4378 0.752848 15.4378 0.15057 16.5519 0.15057C17.5864 0.15057 17.5864 0.451709 18.7004 0.451709C19.7349 0.451709 19.7349 0.451709 20.849 0.451709C21.8835 0.451709 21.8835 0 22.9975 0C24.032 0 24.032 0.376424 25.1461 0.376424C26.1806 0.376424 26.1806 0 27.2947 0C28.3292 0 28.3292 0.0752848 29.4432 0.0752848C30.4777 0.0752848 30.4777 0.752848 31.5918 0.752848C32.6263 0.752848 32.6263 0.15057 33.7403 0.15057C34.7748 0.15057 34.7748 0.677563 35.8889 0.677563C36.9234 0.677563 36.9234 0.15057 38.0375 0.15057C39.072 0.15057 39.072 0.15057 40.186 0.15057C41.2205 0.15057 41.2205 0.15057 42.3346 0.15057C43.3691 0.15057 43.3691 0.15057 44.4831 0.15057C45.1198 0.15057 45.9155 0.978703 45.9155 1.58098C45.9155 2.55968 45.3585 2.55968 45.3585 3.53839C45.3585 4.51709 45.7564 4.51709 45.7564 5.49579C45.7564 6.4745 45.5972 6.47449 45.5972 7.4532C45.5972 8.4319 45.8359 8.4319 45.8359 9.4106C45.8359 10.3893 45.6768 10.3893 45.6768 11.368C45.6768 12.3467 45.5972 12.3467 45.5972 13.3254C45.5972 14.3041 45.6768 14.3041 45.6768 15.2828C45.6768 16.2615 45.5972 16.2615 45.5972 17.2402C45.5972 18.2189 45.3585 18.2189 45.3585 19.1976C45.3585 20.1763 45.7564 20.1763 45.7564 21.155C45.7564 22.1337 45.9951 22.1337 45.9951 23.1124C45.9951 24.0911 45.2789 24.0911 45.2789 25.0698C45.2789 26.0485 45.4381 26.0486 45.4381 27.0273C45.4381 28.006 45.4381 28.006 45.4381 28.9847C45.4381 29.9634 45.5176 29.9634 45.5176 30.9421C45.5176 31.6196 45.6768 32.2972 45.5972 32.8995C45.5176 33.577 45.0402 34.104 44.881 34.7816C44.7219 35.4592 45.1198 36.1367 44.881 36.8143C44.7219 37.4166 44.0057 37.9436 43.767 38.5458C43.5282 39.1481 43.2895 39.7504 42.9712 40.3527C42.6529 40.9549 42.7325 41.7078 42.3346 42.2348C41.9367 42.7618 41.698 43.4393 41.2205 43.9663C40.8226 44.4933 39.8677 44.5686 39.3903 45.0956C38.9128 45.5473 38.8332 46.4507 38.3558 46.9024C37.8783 47.3542 37.003 47.4294 36.5255 47.8811C35.9685 48.2576 35.3319 48.5587 34.7748 48.8599C34.2178 49.2363 33.7403 49.688 33.1037 49.9891C32.4671 50.2903 31.8305 50.4408 31.1939 50.6667C30.5573 50.8925 29.9207 51.1184 29.2045 51.269C28.5679 51.4195 27.8517 51.4195 27.1355 51.4948C26.4989 51.6454 25.8623 52.1724 25.1461 52.2477C24.1116 52.0971 23.475 51.796 22.7588 51.796ZM2.62602 2.55968C1.90983 3.31253 2.86475 3.61367 2.86475 4.66766C2.86475 5.64636 2.62602 5.64636 2.62602 6.62506C2.62602 7.60377 3.0239 7.60377 3.0239 8.65775C3.0239 9.63646 2.62602 9.63646 2.62602 10.6904C2.62602 11.6691 3.0239 11.6691 3.0239 12.7231C3.0239 13.7018 2.62602 13.7018 2.62602 14.7558C2.62602 15.7345 2.46687 15.7345 2.46687 16.7885C2.46687 17.7672 2.94432 17.7672 2.94432 18.8212C2.94432 19.7999 2.30771 19.7999 2.30771 20.8539C2.30771 21.8326 3.10348 21.8326 3.10348 22.8866C3.10348 23.7147 2.70559 23.7147 2.70559 24.6934C2.70559 25.6721 2.78517 25.6721 2.78517 26.7261C2.78517 27.7048 2.30771 27.7048 2.30771 28.7588C2.30771 29.8128 2.70559 29.7375 2.70559 30.7162C2.70559 31.3938 2.94432 31.9961 3.0239 32.6736C3.10348 33.3512 3.10348 34.0287 3.18305 34.631C3.3422 35.3086 3.66051 35.9109 3.81966 36.5131C4.05839 37.1154 4.29712 37.7177 4.53585 38.32C4.85415 38.9223 5.01331 39.5998 5.33161 40.1268C5.64992 40.7291 6.3661 41.0302 6.76398 41.5572C7.16187 42.0842 7.55975 42.6112 7.95763 43.1382C8.43509 43.6652 8.51466 44.4933 8.99212 44.945C9.54915 45.3968 10.1062 45.7732 10.6632 46.1496C11.2203 46.526 11.8569 46.9024 12.4139 47.2036C13.0505 47.5047 13.6075 47.8811 14.2442 48.1823C14.8808 48.4834 15.7561 48.107 16.4723 48.2576C17.1089 48.4834 17.6659 49.0857 18.3821 49.2363C19.0983 49.3868 19.8145 49.161 20.5307 49.2363C21.2469 49.3116 21.8835 49.6127 22.5997 49.6127C23.3159 49.6127 23.9525 49.3868 24.6686 49.3116C25.3848 49.2363 26.0214 49.0857 26.7376 49.0104C27.4538 48.8599 28.0904 48.634 28.727 48.4834C29.3637 48.2576 30.1594 48.3329 30.796 48.0317C31.4326 47.7306 31.9897 47.2789 32.5467 46.9024C33.1833 46.6013 33.9791 46.526 34.5361 46.1496C35.0931 45.7732 35.5706 45.2462 36.1276 44.7945C36.6847 44.3428 37.003 43.7405 37.4804 43.2135C37.9579 42.6865 38.5149 42.3101 38.9128 41.7078C39.3107 41.1808 39.9473 40.7291 40.2656 40.1268C40.5839 39.5245 40.4248 38.6964 40.6635 38.0941C40.9818 37.4918 41.4592 36.9648 41.698 36.3626C41.9367 35.7603 42.0959 35.0827 42.255 34.4052C42.4142 33.7276 42.0959 33.05 42.1754 32.3725C42.255 31.6949 42.6529 31.0926 42.6529 30.4151C42.6529 29.4364 42.255 29.4364 42.255 28.3824C42.255 27.4037 42.3346 27.4037 42.3346 26.3497C42.3346 25.371 43.0508 25.371 43.0508 24.317C43.0508 23.3383 42.4142 23.3383 42.4142 22.2843C42.4142 21.3056 42.9712 21.3056 42.9712 20.2516C42.9712 19.2729 42.4142 19.2729 42.4142 18.2189C42.4142 17.2402 42.4142 17.2402 42.4142 16.1862C42.4142 15.2075 42.4142 15.2075 42.4142 14.1535C42.4142 13.1748 42.4142 13.1748 42.4142 12.1209C42.4142 11.1422 42.4937 11.1422 42.4937 10.0882C42.4937 9.10946 43.0508 9.10946 43.0508 8.05548C43.0508 7.07677 42.6529 7.07677 42.6529 6.02279C42.6529 5.04408 42.812 5.04408 42.812 3.9901C42.812 2.93611 43.3691 2.78554 42.6529 2.03269C41.9367 2.03269 41.698 2.63497 40.6635 2.63497C39.629 2.63497 39.629 2.55968 38.5945 2.55968C37.56 2.55968 37.56 2.63497 36.5255 2.63497C35.491 2.63497 35.491 2.55968 34.4565 2.55968C33.422 2.55968 33.422 2.33383 32.3876 2.33383C31.3531 2.33383 31.3531 2.71025 30.3186 2.71025C29.2841 2.71025 29.2841 2.93611 28.2496 2.93611C27.2151 2.93611 27.2151 2.25854 26.1806 2.25854C25.1461 2.25854 25.1461 2.40911 24.032 2.40911C22.9975 2.40911 22.9975 2.40911 21.9631 2.40911C20.9286 2.40911 20.9286 2.4844 19.8145 2.4844C18.78 2.4844 18.78 2.63497 17.6659 2.63497C16.6314 2.63497 16.6314 2.25854 15.597 2.25854C14.5625 2.25854 14.5625 2.71025 13.528 2.71025C12.4935 2.71025 12.4935 2.25854 11.3794 2.25854C10.3449 2.25854 10.3449 2.33383 9.23085 2.33383C8.19636 2.33383 8.19636 2.71025 7.08229 2.71025C5.88865 2.86082 5.80907 3.16196 4.77458 2.93611C3.58093 2.71025 3.42178 1.88212 2.62602 2.55968Z" fill="#2B292D"/>
<path d="M33.8996 99.6019C33.1834 100.355 32.7059 99.2255 31.5918 99.2255C30.4778 99.2255 30.4778 99.5266 29.3637 99.5266C28.2496 99.5266 28.2496 99.1502 27.1356 99.1502C26.0215 99.1502 26.1011 99.7525 24.987 99.7525C23.8729 99.7525 23.8729 99.5266 22.7589 99.5266C21.6448 99.5266 21.6448 99.4513 20.5307 99.4513C19.4167 99.4513 19.4167 99.4513 18.3026 99.4513C17.1885 99.4513 17.1885 99.903 16.0745 99.903C14.9604 99.903 14.9604 99.3008 13.8463 99.3008C12.7323 99.3008 12.2548 100.505 11.459 99.7525C10.6633 98.9243 10.7428 98.1715 11.5386 97.3434C12.2548 96.5905 12.7323 97.3434 13.7667 97.3434C14.8808 97.3434 14.8808 97.7198 15.9949 97.7198C17.109 97.7198 17.109 97.7198 18.223 97.7198C19.3371 97.7198 19.3371 97.5692 20.4512 97.5692C21.5652 97.5692 21.5652 97.1175 22.6793 97.1175C23.7934 97.1175 23.7934 97.4939 24.9074 97.4939C26.0215 97.4939 26.0215 96.9669 27.1356 96.9669C28.2496 96.9669 28.2496 97.4186 29.3637 97.4186C30.4778 97.4186 30.4778 96.9669 31.5918 96.9669C32.7059 96.9669 32.8651 96.7411 33.82 97.2681C35.0136 97.7951 34.6953 98.7738 33.8996 99.6019Z" fill="#2B292D"/>
</svg>
