<svg width="329" height="59" viewBox="0 0 329 59" fill="none" xmlns="http://www.w3.org/2000/svg">
<path d="M0 29.9131C0 28.2457 0.318869 26.6812 0.956608 25.2199C1.59435 23.7585 2.45717 22.4845 3.54508 21.3978C4.65174 20.2924 5.9366 19.4212 7.39964 18.7842C8.86269 18.1472 10.4289 17.8287 12.0983 17.8287H30.6115V25.8944H12.0983C11.5356 25.8944 11.0104 25.9974 10.5227 26.2035C10.035 26.4096 9.60359 26.7 9.22845 27.0747C8.87207 27.4307 8.59072 27.8522 8.38439 28.3393C8.17806 28.8265 8.0749 29.3511 8.0749 29.9131C8.0749 30.4752 8.17806 31.0091 8.38439 31.515C8.59072 32.0021 8.87207 32.433 9.22845 32.8078C9.60359 33.1637 10.035 33.4448 10.5227 33.6509C11.0104 33.8569 11.5356 33.96 12.0983 33.96H20.1732C21.8425 33.96 23.4088 34.2785 24.8718 34.9155C26.3536 35.5338 27.6385 36.3956 28.7264 37.501C29.833 38.5877 30.6959 39.871 31.3148 41.3511C31.9526 42.8125 32.2715 44.3769 32.2715 46.0444C32.2715 47.7119 31.9526 49.2763 31.3148 50.7376C30.6959 52.199 29.833 53.4824 28.7264 54.5878C27.6385 55.6744 26.3536 56.5363 24.8718 57.1733C23.4088 57.8103 21.8425 58.1288 20.1732 58.1288H2.25084V50.0632H20.1732C20.7359 50.0632 21.2611 49.9601 21.7488 49.754C22.2364 49.5479 22.6585 49.2669 23.0149 48.9109C23.39 48.5362 23.6807 48.1053 23.8871 47.6182C24.0934 47.1311 24.1966 46.6065 24.1966 46.0444C24.1966 45.4823 24.0934 44.9577 23.8871 44.4706C23.6807 43.9835 23.39 43.5619 23.0149 43.206C22.6585 42.8313 22.2364 42.5409 21.7488 42.3348C21.2611 42.1287 20.7359 42.0256 20.1732 42.0256H12.0983C10.4289 42.0256 8.86269 41.7071 7.39964 41.0701C5.9366 40.4331 4.65174 39.5713 3.54508 38.4846C2.45717 37.3792 1.59435 36.0958 0.956608 34.6345C0.318869 33.1544 0 31.5806 0 29.9131Z" fill="#58B4AE"/>
<path d="M53.9639 58.1288H45.9172V25.8944H33.7908V17.8287H66.0622V25.8944H53.9639V58.1288Z" fill="#58B4AE"/>
<path d="M92.8472 42.0256V33.96C92.8472 32.8546 92.6315 31.8148 92.2001 30.8405C91.7875 29.8475 91.2154 28.9857 90.4839 28.255C89.7523 27.5243 88.8895 26.9529 87.8954 26.5407C86.92 26.1098 85.879 25.8944 84.7724 25.8944C83.6657 25.8944 82.6153 26.1098 81.6212 26.5407C80.6458 26.9529 79.7924 27.5243 79.0608 28.255C78.3293 28.9857 77.7478 29.8475 77.3164 30.8405C76.9038 31.8148 76.6975 32.8546 76.6975 33.96V42.0256H92.8472ZM100.922 58.1288H92.8472V50.0632H76.6975V58.1288H68.6507V33.96C68.6507 31.7305 69.0727 29.6415 69.9168 27.693C70.7609 25.7257 71.905 24.0114 73.3493 22.5501C74.8124 21.0887 76.5193 19.9365 78.47 19.0934C80.4395 18.2503 82.5403 17.8287 84.7724 17.8287C87.0044 17.8287 89.0958 18.2503 91.0466 19.0934C93.0161 19.9365 94.7323 21.0887 96.1954 22.5501C97.6584 24.0114 98.812 25.7257 99.656 27.693C100.5 29.6415 100.922 31.7305 100.922 33.96V58.1288Z" fill="#58B4AE"/>
<path d="M125.625 58.1288H117.578V45.5104C115.796 45.0608 114.155 44.3395 112.655 43.3465C111.173 42.3535 109.897 41.1732 108.828 39.8055C107.759 38.419 106.924 36.8921 106.324 35.2246C105.743 33.5384 105.452 31.7679 105.452 29.9131V17.8287H113.527V29.9131C113.527 31.0185 113.733 32.0677 114.146 33.0607C114.577 34.0349 115.159 34.8874 115.89 35.6181C116.622 36.3488 117.475 36.9296 118.451 37.3605C119.445 37.7727 120.495 37.9788 121.602 37.9788C122.708 37.9788 123.749 37.7727 124.725 37.3605C125.719 36.9296 126.582 36.3488 127.313 35.6181C128.045 34.8874 128.617 34.0349 129.03 33.0607C129.461 32.0677 129.677 31.0185 129.677 29.9131V17.8287H137.723V29.9131C137.723 31.7679 137.423 33.5384 136.823 35.2246C136.242 36.8921 135.416 38.419 134.347 39.8055C133.278 41.1732 132.003 42.3535 130.521 43.3465C129.039 44.3395 127.407 45.0608 125.625 45.5104V58.1288Z" fill="#58B4AE"/>
<path d="M173.197 58.1288H165.122V17.8287H173.197V33.96H189.318V17.8287H197.393V58.1288H189.318V42.0256H173.197V58.1288Z" fill="#58B4AE"/>
<path d="M247.238 38.1474C247.238 40.0584 246.985 41.9038 246.478 43.6837C245.991 45.4449 245.297 47.1029 244.396 48.658C243.496 50.1943 242.408 51.5995 241.133 52.8735C239.857 54.1475 238.45 55.2435 236.912 56.1616C235.374 57.0609 233.714 57.7541 231.932 58.2412C230.151 58.7471 228.303 59 226.39 59C224.477 59 222.629 58.7471 220.847 58.2412C219.084 57.7541 217.424 57.0609 215.867 56.1616C214.329 55.2435 212.922 54.1475 211.647 52.8735C210.371 51.5995 209.274 50.1943 208.355 48.658C207.455 47.1029 206.751 45.4449 206.245 43.6837C205.757 41.9038 205.513 40.0584 205.513 38.1474C205.513 36.2364 205.757 34.3909 206.245 32.611C206.751 30.8312 207.455 29.1731 208.355 27.6368C209.274 26.1004 210.371 24.6953 211.647 23.4213C212.922 22.1473 214.329 21.0606 215.867 20.1613C217.424 19.262 219.084 18.5688 220.847 18.0816C222.629 17.5758 224.477 17.3229 226.39 17.3229C228.303 17.3229 230.151 17.5758 231.932 18.0816C233.714 18.5688 235.374 19.262 236.912 20.1613C238.45 21.0606 239.857 22.1473 241.133 23.4213C242.408 24.6953 243.496 26.1004 244.396 27.6368C245.297 29.1731 245.991 30.8312 246.478 32.611C246.985 34.3909 247.238 36.2364 247.238 38.1474ZM239.22 38.1474C239.22 36.3862 238.882 34.7281 238.207 33.1731C237.531 31.5993 236.612 30.241 235.449 29.0981C234.305 27.9365 232.945 27.0185 231.37 26.344C229.813 25.6695 228.153 25.3323 226.39 25.3323C224.608 25.3323 222.938 25.6695 221.382 26.344C219.825 27.0185 218.465 27.9365 217.302 29.0981C216.139 30.241 215.22 31.5993 214.545 33.1731C213.869 34.7281 213.532 36.3862 213.532 38.1474C213.532 39.9085 213.869 41.5666 214.545 43.1217C215.22 44.658 216.139 46.0069 217.302 47.1685C218.465 48.3301 219.825 49.2482 221.382 49.9226C222.938 50.5971 224.608 50.9344 226.39 50.9344C228.153 50.9344 229.813 50.5971 231.37 49.9226C232.945 49.2482 234.305 48.3301 235.449 47.1685C236.612 46.0069 237.531 44.658 238.207 43.1217C238.882 41.5666 239.22 39.9085 239.22 38.1474Z" fill="#58B4AE"/>
<path d="M292.159 58.1288H284.113V29.3511C284.113 28.789 284 28.2644 283.775 27.7773C283.569 27.2901 283.278 26.8686 282.903 26.5126C282.546 26.1379 282.124 25.8475 281.637 25.6414C281.149 25.4353 280.624 25.3323 280.061 25.3323C279.498 25.3323 278.973 25.4353 278.485 25.6414C277.998 25.8475 277.566 26.1379 277.191 26.5126C276.835 26.8686 276.554 27.2901 276.347 27.7773C276.141 28.2644 276.038 28.789 276.038 29.3511V58.1288H267.963V29.3511C267.963 28.789 267.86 28.2644 267.653 27.7773C267.447 27.2901 267.156 26.8686 266.781 26.5126C266.425 26.1379 266.003 25.8475 265.515 25.6414C265.027 25.4353 264.502 25.3323 263.939 25.3323C263.377 25.3323 262.851 25.4353 262.364 25.6414C261.876 25.8475 261.445 26.1379 261.07 26.5126C260.713 26.8686 260.432 27.2901 260.226 27.7773C260.019 28.2644 259.916 28.789 259.916 29.3511V58.1288H251.841V29.3511C251.841 27.6836 252.151 26.1192 252.77 24.6578C253.407 23.1777 254.27 21.8943 255.358 20.8077C256.465 19.7023 257.75 18.8404 259.213 18.2222C260.694 17.5852 262.27 17.2666 263.939 17.2666C265.44 17.2666 266.884 17.5383 268.272 18.0816C269.66 18.6062 270.908 19.3744 272.014 20.3861C273.121 19.3744 274.359 18.6062 275.728 18.0816C277.116 17.5383 278.561 17.2666 280.061 17.2666C281.73 17.2666 283.297 17.5852 284.76 18.2222C286.242 18.8404 287.526 19.7023 288.614 20.8077C289.721 21.8943 290.584 23.1777 291.203 24.6578C291.84 26.1192 292.159 27.6836 292.159 29.3511V58.1288Z" fill="#58B4AE"/>
<path d="M324.678 58.1288H297.021V17.8287H324.678V25.8944H305.096V33.96H318.348V42.0256H305.096V50.0632H324.678V58.1288Z" fill="#58B4AE"/>
<path fill-rule="evenodd" clip-rule="evenodd" d="M184.054 2.54362L181.508 0L178.961 2.54362L155.578 25.9H165.764H181.508H197.251H207.438L184.054 2.54362Z" fill="#FFB367"/>
</svg>
