<svg width="109" height="108" viewBox="0 0 109 108" fill="none" xmlns="http://www.w3.org/2000/svg">
<path d="M92.6327 106.431C91.543 106.431 91.543 106.349 90.4532 106.349C89.3634 106.349 89.3634 106.679 88.2736 106.679C87.1838 106.679 87.1838 106.679 86.094 106.679C85.0043 106.679 85.0043 106.844 83.9145 106.844C82.8247 106.844 82.8247 106.679 81.7349 106.679C80.6451 106.679 80.6451 107.009 79.5553 107.009C78.4656 107.009 78.4656 106.762 77.3758 106.762C76.286 106.762 76.286 106.431 75.1962 106.431C74.1064 106.431 74.1064 106.349 73.0166 106.349C71.9269 106.349 71.9269 106.762 70.8371 106.762C69.7473 106.762 69.7473 106.431 68.6575 106.431C67.5677 106.431 67.5677 106.927 66.4779 106.927C65.3882 106.927 65.3882 106.431 64.2984 106.431C63.2086 106.431 63.2086 106.514 62.1188 106.514C61.029 106.514 61.029 106.844 59.9393 106.844C58.8495 106.844 58.8495 106.597 57.7597 106.597C56.6699 106.597 56.6699 106.431 55.5801 106.431C54.4903 106.431 54.4903 107.009 53.4005 107.009C52.3108 107.009 52.3108 106.431 51.221 106.431C50.1312 106.431 50.1312 106.679 49.0414 106.679C47.9516 106.679 47.9516 106.762 46.8619 106.762C45.7721 106.762 45.7721 106.679 44.6823 106.679C43.5925 106.679 43.5925 106.844 42.5027 106.844C41.4129 106.844 41.4129 106.679 40.3232 106.679C39.2334 106.679 39.2334 106.349 38.1436 106.349C37.0538 106.349 37.0538 107.009 35.964 107.009C34.8742 107.009 34.8742 106.514 33.7845 106.514C32.6947 106.514 32.6947 106.349 31.6049 106.349C30.5151 106.349 30.5151 106.597 29.4253 106.597C28.3355 106.597 28.3355 106.266 27.2458 106.266C26.156 106.266 26.156 106.514 25.0662 106.514C23.9764 106.514 23.9764 106.514 22.8866 106.514C21.7968 106.514 21.7968 106.679 20.7071 106.679C19.6173 106.679 19.6173 106.679 18.5275 106.679C17.4377 106.679 17.4377 106.184 16.3479 106.184C15.5935 106.184 14.9228 106.184 14.1684 106.019C13.4139 105.854 12.7433 105.689 12.0726 105.359C11.402 105.111 10.4799 105.111 9.89305 104.699C9.30625 104.286 8.55178 103.956 7.96498 103.461C7.462 102.966 7.04285 102.306 6.6237 101.645C6.20456 101.068 5.70158 100.408 5.45009 99.6649C5.1986 99.0048 5.53392 98.0971 5.36626 97.3544C5.1986 96.6118 5.1986 95.9516 5.1986 95.2089C5.1986 94.2187 4.69563 94.2187 4.69563 93.2285C4.69563 92.2383 4.77946 92.2383 4.77946 91.248C4.77946 90.2578 4.02499 89.9277 4.77946 89.2676C5.61775 88.5249 5.95307 89.5151 7.04285 89.5151C8.13263 89.5151 8.13263 89.4326 9.30625 89.4326C10.396 89.4326 10.396 89.5977 11.5696 89.5977C12.6594 89.5977 12.6594 89.2676 13.833 89.2676C14.9228 89.2676 14.9228 89.3501 16.0964 89.3501C17.1862 89.3501 17.1862 89.4326 18.3598 89.4326C19.4496 89.4326 19.4496 89.6802 20.6232 89.6802C21.713 89.6802 21.713 89.02 22.8866 89.02C23.9764 89.02 23.9764 89.1025 25.15 89.1025C26.2398 89.1025 26.2398 89.5151 27.4134 89.5151C28.5032 89.5151 28.5032 89.1025 29.6768 89.1025C30.7666 89.1025 30.7666 89.3501 31.9402 89.3501C33.03 89.3501 33.03 89.5151 34.2036 89.5151C35.2934 89.5151 35.2934 89.1851 36.467 89.1851C37.5568 89.1851 37.5568 88.9375 38.7304 88.9375C39.8202 88.9375 39.8202 89.02 40.9938 89.02C42.0836 89.02 42.0836 89.5151 43.2572 89.5151C44.347 89.5151 44.347 89.5151 45.5206 89.5151C46.6104 89.5151 46.6104 89.3501 47.784 89.3501C48.8738 89.3501 48.8738 89.5151 50.0474 89.5151C51.1372 89.5151 51.1372 89.5151 52.3108 89.5151C53.4006 89.5151 53.4006 89.5151 54.5742 89.5151C55.6639 89.5151 55.6639 89.4326 56.8376 89.4326C57.9273 89.4326 57.9273 89.4326 59.101 89.4326C60.1907 89.4326 60.1907 88.9375 61.3643 88.9375C62.4541 88.9375 62.4541 89.4326 63.6277 89.4326C64.7175 89.4326 64.7175 88.9375 65.8911 88.9375C66.9809 88.9375 66.9809 89.5151 68.1545 89.5151C69.2443 89.5151 69.2443 89.02 70.4179 89.02C71.5077 89.02 71.5077 89.5151 72.6813 89.5151C73.7711 89.5151 73.7711 89.4326 74.9447 89.4326C76.0345 89.4326 76.0345 89.4326 77.2081 89.4326C78.2979 89.4326 78.2979 89.1851 79.4715 89.1851C80.5613 89.1851 80.5613 89.5977 81.7349 89.5977C82.8247 89.5977 82.8247 89.4326 83.9983 89.4326C85.0881 89.4326 85.0881 89.4326 86.2617 89.4326C87.3515 89.4326 87.3515 89.5151 88.5251 89.5151C89.6149 89.5151 89.6149 89.1025 90.7885 89.1025C91.8783 89.1025 91.8783 89.6802 93.0519 89.6802C94.1417 89.6802 94.1417 89.4326 95.3153 89.4326C96.4051 89.4326 96.4051 89.8452 97.5787 89.8452C98.6685 89.8452 98.6685 89.1851 99.8421 89.1851C100.932 89.1851 100.932 89.8452 102.105 89.8452C103.195 89.8452 103.195 89.6802 104.369 89.6802C105.542 89.6802 105.542 88.9375 106.381 89.6802C107.135 90.3403 106.716 90.4228 106.716 91.4131C106.716 92.4033 106.632 92.4033 106.632 93.3935C106.632 94.3837 106.632 94.3837 106.632 95.374C106.632 96.1166 106.465 96.8593 106.297 97.602C106.129 98.3446 106.381 99.1698 106.045 99.9125C105.794 100.573 105.039 101.068 104.62 101.728C104.201 102.306 103.698 102.883 103.195 103.378C102.692 103.873 102.273 104.699 101.686 105.029C101.1 105.441 100.261 105.524 99.5068 105.771C98.8361 106.019 98.1655 106.431 97.411 106.597C94.1417 106.597 93.3872 106.431 92.6327 106.431Z" fill="#F8CF61"/>
<path d="M3.10289 61.1286C3.10289 60.3859 3.10289 59.6432 3.18672 58.9006C3.27055 58.1579 3.27055 57.4152 3.43821 56.6726C3.60587 55.9299 4.10884 55.3523 4.36033 54.6096C4.52799 53.9494 5.1148 53.3718 5.36629 52.6291C5.61777 51.969 5.78543 51.2263 6.12075 50.5662C6.45607 49.906 6.79139 49.2459 7.12671 48.6682C7.46202 48.0081 7.62968 47.2654 8.04883 46.6878C8.46798 46.1101 9.30627 45.7801 9.72542 45.2024C10.2284 44.6248 10.4799 43.8821 10.9829 43.387C11.4858 42.8919 11.9888 42.3143 12.5756 41.8192C13.0786 41.324 13.8331 41.0765 14.4199 40.5814C15.0067 40.0863 15.4258 39.5911 16.0126 39.096C16.5994 38.6834 17.2701 38.4359 17.9407 38.0233C18.5275 37.6107 18.6952 36.5379 19.3658 36.1254C19.9526 35.7128 20.7071 35.3827 21.2939 35.0526C21.9645 34.7225 22.6352 34.475 23.3058 34.1449C23.9764 33.8148 24.8147 33.9799 25.4854 33.6498C26.156 33.3197 26.659 32.6596 27.3296 32.412C28.0002 32.1644 28.7547 31.9169 29.4254 31.6693C30.096 31.4218 30.8505 31.2567 31.5211 31.0092C32.1917 30.7616 32.8624 30.5141 33.6168 30.2665C34.2875 30.1015 35.1258 30.2665 35.8802 30.1015C36.6347 29.9364 37.2215 29.1938 37.8921 29.0287C38.7304 29.0287 39.5687 29.4413 40.3232 29.2763C41.0776 29.1112 41.6645 28.5336 42.4189 28.3686C43.1734 28.2861 43.9278 28.6161 44.6823 28.5336C45.4368 28.4511 46.1074 28.3686 46.8619 28.2861C47.6163 28.2035 48.287 27.6259 49.0414 27.6259C49.7959 27.5434 50.5504 28.0385 51.3048 28.0385C52.0593 28.0385 52.8138 27.6259 53.4844 27.6259C54.2389 27.6259 54.9933 27.5434 55.7478 27.6259C56.5023 27.6259 57.2567 27.7084 58.0112 27.7909C58.7657 27.8735 59.5201 28.0385 60.1908 28.121C60.9452 28.2035 61.6997 28.0385 62.4542 28.121C63.2086 28.2035 63.8793 28.4511 64.6337 28.6161C65.3882 28.6987 66.0588 29.2763 66.7295 29.4413C67.4839 29.6064 68.3222 29.1938 68.9929 29.3588C69.7473 29.5238 70.3341 30.184 71.0048 30.349C71.7592 30.5141 72.5975 30.1015 73.352 30.2665C74.1065 30.4316 74.6094 31.2567 75.2801 31.5043C75.9507 31.7519 76.9567 31.3393 77.6273 31.5868C78.2979 31.8344 78.8009 32.577 79.4715 32.9071C80.1422 33.1547 81.0643 32.9896 81.7349 33.2372C82.4056 33.5673 82.9924 33.9799 83.663 34.3099C84.3337 34.64 84.8366 35.2176 85.5073 35.5477C86.1779 35.8778 86.7647 36.2904 87.4353 36.703C88.106 37.1156 88.7766 37.3631 89.3634 37.7757C89.9502 38.1883 90.3694 38.931 90.9562 39.3436C91.543 39.7562 92.2136 40.0863 92.8004 40.5814C93.3872 41.0765 93.8902 41.5716 94.477 42.0667C94.98 42.5618 95.6506 42.9744 96.1536 43.4695C96.6566 44.0472 96.9919 44.7073 97.4949 45.285C97.9979 45.8626 98.5847 46.2752 99.0038 46.9353C99.423 47.513 99.5906 48.3382 100.01 48.9158C100.429 49.5759 100.429 50.3186 100.764 50.9788C101.1 51.6389 101.938 52.0515 102.189 52.7117C102.441 53.3718 102.692 54.1145 102.944 54.7746C103.111 55.4348 103.363 56.1774 103.531 56.9201C103.698 57.6628 103.698 58.4055 103.782 59.1481C103.866 59.8908 103.866 60.6335 103.866 61.3761" fill="#F8CF61"/>
<path d="M102.86 72.3511C101.77 72.3511 101.77 72.7637 100.597 72.7637C99.5068 72.7637 99.5068 72.3511 98.3332 72.3511C97.2434 72.3511 97.2434 72.9287 96.0698 72.9287C94.98 72.9287 94.98 72.8462 93.8064 72.8462C92.7166 72.8462 92.7166 72.9287 91.543 72.9287C90.4532 72.9287 90.4532 72.8462 89.2796 72.8462C88.1898 72.8462 88.1898 73.0113 87.0162 73.0113C85.9264 73.0113 85.9264 72.7637 84.7528 72.7637C83.663 72.7637 83.663 72.6812 82.4894 72.6812C81.3996 72.6812 81.3996 72.7637 80.226 72.7637C79.1362 72.7637 79.1362 72.5987 77.9626 72.5987C76.8728 72.5987 76.8728 72.5161 75.6992 72.5161C74.6094 72.5161 74.6094 72.5987 73.4358 72.5987C72.346 72.5987 72.346 72.6812 71.1724 72.6812C70.0826 72.6812 70.0826 73.0113 68.909 73.0113C67.8192 73.0113 67.8192 72.6812 66.6456 72.6812C65.5558 72.6812 65.5558 72.3511 64.3822 72.3511C63.2924 72.3511 63.2924 72.9287 62.1188 72.9287C61.029 72.9287 61.029 72.9287 59.8554 72.9287C58.7656 72.9287 58.7656 72.7637 57.592 72.7637C56.5023 72.7637 56.5023 72.7637 55.3286 72.7637C54.2389 72.7637 54.2389 72.6812 53.0652 72.6812C51.9755 72.6812 51.9755 72.5161 50.8018 72.5161C49.7121 72.5161 49.7121 72.3511 48.5385 72.3511C47.4487 72.3511 47.4487 72.1861 46.2751 72.1861C45.1853 72.1861 45.1853 72.1861 44.0117 72.1861C42.9219 72.1861 42.9219 72.5987 41.7483 72.5987C40.6585 72.5987 40.6585 72.3511 39.4849 72.3511C38.3951 72.3511 38.3951 72.3511 37.2215 72.3511C36.1317 72.3511 36.1317 72.3511 34.9581 72.3511C33.8683 72.3511 33.8683 72.1861 32.6947 72.1861C31.6049 72.1861 31.6049 72.7637 30.4313 72.7637C29.3415 72.7637 29.3415 72.5161 28.1679 72.5161C27.0781 72.5161 27.0781 72.2686 25.9045 72.2686C24.8147 72.2686 24.8147 72.6812 23.6411 72.6812C22.5513 72.6812 22.5513 72.5987 21.3777 72.5987C20.2879 72.5987 20.2879 72.6812 19.1143 72.6812C18.0245 72.6812 18.0245 72.3511 16.8509 72.3511C15.7611 72.3511 15.7611 72.1861 14.5875 72.1861C13.4977 72.1861 13.4977 72.5987 12.3241 72.5987C11.2343 72.5987 11.2343 72.5161 10.0607 72.5161C8.97094 72.5161 8.97094 72.1861 7.79733 72.1861C6.70754 72.1861 6.70754 72.1861 5.53393 72.1861C4.36032 72.1861 5.19861 72.9287 4.10883 72.9287C3.27053 72.9287 2.34841 72.4336 1.7616 71.9385C1.1748 71.4434 1.1748 70.4532 1.1748 69.628C1.1748 68.7203 0.923309 68.7203 0.923309 67.8126C0.923309 66.9049 1.25863 66.9049 1.25863 65.9971C1.25863 65.0894 1.00714 65.0069 1.00714 64.0992C1.00714 63.274 1.25863 62.4488 1.84543 61.8712C2.43224 61.2936 3.27053 61.1285 4.10883 61.1285C5.19861 61.1285 5.19861 60.7159 6.37223 60.7159C7.46201 60.7159 7.46201 60.7159 8.63562 60.7159C9.72541 60.7159 9.72541 61.3761 10.899 61.3761C11.9888 61.3761 11.9888 60.9635 13.1624 60.9635C14.2522 60.9635 14.2522 61.3761 15.4258 61.3761C16.5156 61.3761 16.5156 61.2111 17.6892 61.2111C18.779 61.2111 18.779 60.7159 19.9526 60.7159C21.0424 60.7159 21.0424 61.3761 22.216 61.3761C23.3058 61.3761 23.3058 61.4586 24.4794 61.4586C25.5692 61.4586 25.5692 61.1285 26.7428 61.1285C27.8326 61.1285 27.8326 61.4586 29.0062 61.4586C30.096 61.4586 30.096 60.7159 31.2696 60.7159C32.3594 60.7159 32.3594 61.046 33.533 61.046C34.6228 61.046 34.6228 60.7985 35.7964 60.7985C36.8862 60.7985 36.8862 60.7985 38.0598 60.7985C39.1496 60.7985 39.1496 61.2936 40.3232 61.2936C41.4129 61.2936 41.4129 60.881 42.5866 60.881C43.6763 60.881 43.6763 60.9635 44.85 60.9635C45.9397 60.9635 45.9397 61.4586 47.1133 61.4586C48.2031 61.4586 48.2031 61.3761 49.3767 61.3761C50.4665 61.3761 50.4665 60.7985 51.6401 60.7985C52.7299 60.7985 52.7299 60.9635 53.9035 60.9635C54.9933 60.9635 54.9933 61.5411 56.1669 61.5411C57.2567 61.5411 57.2567 60.7159 58.4303 60.7159C59.5201 60.7159 59.5201 61.4586 60.6937 61.4586C61.7835 61.4586 61.7835 60.7985 62.9571 60.7985C64.0469 60.7985 64.0469 60.9635 65.2205 60.9635C66.3103 60.9635 66.3103 60.7159 67.4839 60.7159C68.5737 60.7159 68.5737 60.9635 69.7473 60.9635C70.8371 60.9635 70.8371 60.7159 72.0107 60.7159C73.1005 60.7159 73.1005 61.046 74.2741 61.046C75.3639 61.046 75.3639 61.1285 76.5375 61.1285C77.6273 61.1285 77.6273 60.881 78.8009 60.881C79.8907 60.881 79.8907 60.881 81.0643 60.881C82.1541 60.881 82.1541 60.7985 83.3277 60.7985C84.4175 60.7985 84.4175 60.881 85.5911 60.881C86.6809 60.881 86.6809 61.1285 87.8545 61.1285C88.9443 61.1285 88.9443 60.881 90.1179 60.881C91.2077 60.881 91.2077 60.9635 92.3813 60.9635C93.4711 60.9635 93.4711 61.1285 94.6447 61.1285C95.7345 61.1285 95.7345 61.1285 96.9081 61.1285C97.9978 61.1285 97.9978 61.2111 99.1715 61.2111C100.261 61.2111 100.261 61.3761 101.435 61.3761C102.608 61.3761 102.525 60.7159 103.698 60.7159C104.537 60.7159 105.207 61.4586 105.794 62.0362C106.381 62.6139 107.051 63.274 107.051 64.0992C107.051 65.0069 106.8 65.0069 106.8 65.9146C106.8 66.8223 106.968 66.8223 106.968 67.73C106.968 68.6378 106.968 68.6378 106.968 69.5455C106.968 70.3706 106.297 71.0308 105.794 71.5259C104.369 72.1861 103.698 72.3511 102.86 72.3511Z" fill="#F36B7F"/>
<path d="M103.279 89.35C102.189 89.35 102.189 90.0102 101.016 90.0102C99.9259 90.0102 99.9259 89.8451 98.7523 89.8451C97.6625 89.8451 97.6625 89.5151 96.4889 89.5151C95.3991 89.5151 95.3991 89.5976 94.2255 89.5976C93.1357 89.5976 93.1357 89.5151 91.9621 89.5151C90.8723 89.5151 90.8723 89.35 89.6987 89.35C88.6089 89.35 88.6089 89.4325 87.4353 89.4325C86.3456 89.4325 86.3456 89.2675 85.1719 89.2675C84.0822 89.2675 84.0822 89.4325 82.9085 89.4325C81.8188 89.4325 81.8188 89.8451 80.6451 89.8451C79.5554 89.8451 79.5554 89.5976 78.3818 89.5976C77.292 89.5976 77.292 89.4325 76.1184 89.4325C75.0286 89.4325 75.0286 89.5976 73.855 89.5976C72.7652 89.5976 72.7652 89.6801 71.5916 89.6801C70.5018 89.6801 70.5018 89.5151 69.3282 89.5151C68.2384 89.5151 68.2384 89.8451 67.0648 89.8451C65.975 89.8451 65.975 89.6801 64.8014 89.6801C63.7116 89.6801 63.7116 89.4325 62.538 89.4325C61.4482 89.4325 61.4482 89.6801 60.2746 89.6801C59.1848 89.6801 59.1848 89.7626 58.0112 89.7626C56.9214 89.7626 56.9214 89.185 55.7478 89.185C54.658 89.185 54.658 89.5151 53.4844 89.5151C52.3946 89.5151 52.3946 89.185 51.221 89.185C50.1312 89.185 50.1312 89.2675 48.9576 89.2675C47.8678 89.2675 47.8678 89.185 46.6942 89.185C45.6044 89.185 45.6044 89.6801 44.4308 89.6801C43.341 89.6801 43.341 89.8451 42.1674 89.8451C41.0776 89.8451 41.0776 89.7626 39.904 89.7626C38.8142 89.7626 38.8142 89.9277 37.6406 89.9277C36.5508 89.9277 36.5508 89.7626 35.3772 89.7626C34.2874 89.7626 34.2874 89.2675 33.1138 89.2675C32.024 89.2675 32.024 89.185 30.8504 89.185C29.7606 89.185 29.7607 89.185 28.587 89.185C27.4973 89.185 27.4973 89.185 26.3236 89.185C25.2339 89.185 25.2339 89.8451 24.0602 89.8451C22.9705 89.8451 22.9705 89.185 21.7968 89.185C20.7071 89.185 20.7071 89.9277 19.5335 89.9277C18.4437 89.9277 18.4437 89.8451 17.2701 89.8451C16.1803 89.8451 16.1803 89.4325 15.0067 89.4325C13.9169 89.4325 13.9169 89.8451 12.7433 89.8451C11.6535 89.8451 11.6535 89.2675 10.4799 89.2675C9.39009 89.2675 9.39009 89.8451 8.21647 89.8451C7.12669 89.8451 7.12669 89.4325 5.95308 89.4325C4.77946 89.4325 4.86329 89.5976 3.68968 89.5976C2.85139 89.5976 2.01309 89.2675 1.42629 88.6899C0.839479 88.1122 1.00714 87.2871 1.00714 86.4619C1.00714 84.9765 0.336502 84.9765 0.336502 83.4912C0.336502 82.666 1.00714 81.9233 1.59394 81.4282C2.18075 80.8506 2.85139 80.7681 3.68968 80.7681C4.77946 80.7681 4.77946 80.7681 5.95308 80.7681C7.04286 80.7681 7.04286 80.603 8.21647 80.603C9.30626 80.603 9.30626 80.1079 10.4799 80.1079C11.5697 80.1079 11.5697 80.1079 12.7433 80.1079C13.833 80.1079 13.833 80.6855 15.0067 80.6855C16.0964 80.6855 16.0964 80.438 17.2701 80.438C18.3598 80.438 18.3598 80.5205 19.5335 80.5205C20.6232 80.5205 20.6232 80.7681 21.7968 80.7681C22.8866 80.7681 22.8866 80.5205 24.0602 80.5205C25.15 80.5205 25.15 80.7681 26.3236 80.7681C27.4134 80.7681 27.4134 80.6855 28.587 80.6855C29.6768 80.6855 29.6768 80.7681 30.8504 80.7681C31.9402 80.7681 31.9402 80.8506 33.1138 80.8506C34.2036 80.8506 34.2036 80.5205 35.3772 80.5205C36.467 80.5205 36.467 80.438 37.6406 80.438C38.7304 80.438 38.7304 80.3555 39.904 80.3555C40.9938 80.3555 40.9938 80.2729 42.1674 80.2729C43.2572 80.2729 43.2572 80.5205 44.4308 80.5205C45.5206 80.5205 45.5206 80.3555 46.6942 80.3555C47.784 80.3555 47.784 80.1904 48.9576 80.1904C50.0474 80.1904 50.0474 80.9331 51.221 80.9331C52.3108 80.9331 52.3108 80.3555 53.4844 80.3555C54.5742 80.3555 54.5742 80.603 55.7478 80.603C56.8376 80.603 56.8376 80.8506 58.0112 80.8506C59.101 80.8506 59.101 80.5205 60.2746 80.5205C61.3644 80.5205 61.3644 80.603 62.538 80.603C63.6278 80.603 63.6278 80.7681 64.8014 80.7681C65.8912 80.7681 65.8912 80.6855 67.0648 80.6855C68.1546 80.6855 68.1546 80.2729 69.3282 80.2729C70.418 80.2729 70.4179 80.1904 71.5916 80.1904C72.6813 80.1904 72.6814 80.6855 73.855 80.6855C74.9447 80.6855 74.9447 80.7681 76.1184 80.7681C77.2081 80.7681 77.2081 80.8506 78.3818 80.8506C79.4715 80.8506 79.4715 80.2729 80.6451 80.2729C81.7349 80.2729 81.7349 80.2729 82.9085 80.2729C83.9983 80.2729 83.9983 80.3555 85.1719 80.3555C86.2617 80.3555 86.2617 80.8506 87.4353 80.8506C88.5251 80.8506 88.5251 80.6855 89.6987 80.6855C90.7885 80.6855 90.7885 80.6855 91.9621 80.6855C93.0519 80.6855 93.0519 80.3555 94.2255 80.3555C95.3153 80.3555 95.3153 80.1904 96.4889 80.1904C97.5787 80.1904 97.5787 80.438 98.7523 80.438C99.8421 80.438 99.8421 80.438 101.016 80.438C102.105 80.438 102.105 80.1079 103.279 80.1079C104.117 80.1079 105.04 80.5205 105.626 81.0981C106.213 81.6758 106.213 82.5835 106.213 83.4087C106.213 84.894 106.297 84.894 106.297 86.3793C106.297 87.2045 105.794 87.7822 105.207 88.2773C104.62 89.185 104.117 89.35 103.279 89.35Z" fill="#F36B7F"/>
<path d="M103.279 90.7528C102.189 90.7528 102.189 91.1654 101.016 91.1654C99.9259 91.1654 99.9259 90.8354 98.7523 90.8354C97.6625 90.8354 97.6625 91.0004 96.4889 91.0004C95.3991 91.0004 95.3991 90.6703 94.2255 90.6703C93.1357 90.6703 93.1357 91.0829 91.9621 91.0829C90.8723 91.0829 90.8723 91.0004 89.6987 91.0004C88.6089 91.0004 88.6089 90.6703 87.4353 90.6703C86.3455 90.6703 86.3455 91.0004 85.1719 91.0004C84.0821 91.0004 84.0821 91.0004 82.9085 91.0004C81.8187 91.0004 81.8187 91.3305 80.6451 91.3305C79.5554 91.3305 79.5554 91.1654 78.3817 91.1654C77.292 91.1654 77.292 90.6703 76.1183 90.6703C75.0286 90.6703 75.0286 91.1654 73.8549 91.1654C72.7652 91.1654 72.7652 90.6703 71.5916 90.6703C70.5018 90.6703 70.5018 90.7528 69.3282 90.7528C68.2384 90.7528 68.2384 90.9179 67.0648 90.9179C65.975 90.9179 65.975 90.5053 64.8014 90.5053C63.7116 90.5053 63.7116 90.9179 62.538 90.9179C61.4482 90.9179 61.4482 91.1654 60.2746 91.1654C59.1848 91.1654 59.1848 91.1654 58.0112 91.1654C56.9214 91.1654 56.9214 90.5878 55.7478 90.5878C54.658 90.5878 54.658 90.5053 53.4844 90.5053C52.3946 90.5053 52.3946 90.7528 51.221 90.7528C50.1312 90.7528 50.1312 90.6703 48.9576 90.6703C47.8678 90.6703 47.8678 90.9179 46.6942 90.9179C45.6044 90.9179 45.6044 91.1654 44.4308 91.1654C43.341 91.1654 43.341 90.7528 42.1674 90.7528C41.0776 90.7528 41.0776 90.5053 39.904 90.5053C38.8142 90.5053 38.8142 90.7528 37.6406 90.7528C36.5508 90.7528 36.5508 90.8354 35.3772 90.8354C34.2874 90.8354 34.2874 91.1654 33.1138 91.1654C32.024 91.1654 32.024 90.8354 30.8504 90.8354C29.7607 90.8354 29.7607 90.6703 28.587 90.6703C27.4973 90.6703 27.4973 90.7528 26.3236 90.7528C25.2339 90.7528 25.2339 90.7528 24.0602 90.7528C22.9705 90.7528 22.9705 91.0829 21.7969 91.0829C20.7071 91.0829 20.7071 91.1654 19.5335 91.1654C18.4437 91.1654 18.4437 90.5878 17.2701 90.5878C16.1803 90.5878 16.1803 91.2479 15.0067 91.2479C13.9169 91.2479 13.9169 90.6703 12.7433 90.6703C11.6535 90.6703 11.6535 91.0004 10.4799 91.0004C9.39009 91.0004 9.39009 90.5878 8.21648 90.5878C7.1267 90.5878 7.12669 90.8354 5.95308 90.8354C4.77947 90.8354 5.53393 90.5053 4.44415 90.5053C3.68969 90.5053 2.76756 91.0004 2.09693 90.6703C1.42629 90.3402 1.34246 89.2675 1.00714 88.6899C0.671826 88.0297 0.0850197 87.5346 0.0850197 86.7094C0.0850197 85.2241 0.00119019 85.2241 0.00119019 83.7387C0.00119019 82.9961 0.336508 82.2534 0.755655 81.5932C1.09097 80.9331 1.76161 80.5205 2.43224 80.1904C3.10288 79.8603 3.68969 79.3652 4.52798 79.3652C5.61776 79.3652 5.61776 79.2827 6.79138 79.2827C7.88116 79.2827 7.88116 79.1177 9.05477 79.1177C10.1446 79.1177 10.1446 79.9429 11.3182 79.9429C12.408 79.9429 12.408 79.4478 13.5816 79.4478C14.6713 79.4478 14.6713 79.6128 15.845 79.6128C16.9347 79.6128 16.9347 79.7778 18.1084 79.7778C19.1981 79.7778 19.1981 79.5303 20.3718 79.5303C21.4615 79.5303 21.4615 79.3652 22.6351 79.3652C23.7249 79.3652 23.7249 79.7778 24.8985 79.7778C25.9883 79.7778 25.9883 79.3652 27.1619 79.3652C28.2517 79.3652 28.2517 79.2827 29.4253 79.2827C30.5151 79.2827 30.5151 79.4478 31.6887 79.4478C32.7785 79.4478 32.7785 79.7778 33.9521 79.7778C35.0419 79.7778 35.0419 79.3652 36.2155 79.3652C37.3053 79.3652 37.3053 79.2827 38.4789 79.2827C39.5687 79.2827 39.5687 79.2827 40.7423 79.2827C41.8321 79.2827 41.8321 79.5303 43.0057 79.5303C44.0955 79.5303 44.0955 79.0352 45.2691 79.0352C46.3589 79.0352 46.3589 79.1177 47.5325 79.1177C48.6223 79.1177 48.6223 79.1177 49.7959 79.1177C50.8857 79.1177 50.8857 79.3652 52.0593 79.3652C53.1491 79.3652 53.1491 79.1177 54.3227 79.1177C55.4125 79.1177 55.4125 79.0352 56.5861 79.0352C57.6759 79.0352 57.6759 79.2827 58.8495 79.2827C59.9393 79.2827 59.9393 79.2827 61.1129 79.2827C62.2027 79.2827 62.2027 79.5303 63.3763 79.5303C64.466 79.5303 64.466 79.0352 65.6397 79.0352C66.7294 79.0352 66.7294 79.1177 67.9031 79.1177C68.9928 79.1177 68.9928 79.6128 70.1665 79.6128C71.2562 79.6128 71.2562 79.6953 72.4298 79.6953C73.5196 79.6953 73.5196 79.7778 74.6932 79.7778C75.783 79.7778 75.783 79.2827 76.9566 79.2827C78.0464 79.2827 78.0464 79.1177 79.22 79.1177C80.3098 79.1177 80.3098 79.2002 81.4834 79.2002C82.5732 79.2002 82.5732 79.4478 83.7468 79.4478C84.8366 79.4478 84.8366 79.6128 86.0102 79.6128C87.1 79.6128 87.1 79.2002 88.2736 79.2002C89.3634 79.2002 89.3634 79.6128 90.537 79.6128C91.6268 79.6128 91.6268 79.6953 92.8004 79.6953C93.8902 79.6953 93.8902 79.6128 95.0638 79.6128C96.1536 79.6128 96.1536 79.1177 97.3272 79.1177C98.417 79.1177 98.417 79.6128 99.5906 79.6128C100.68 79.6128 100.68 79.7778 101.854 79.7778C103.028 79.7778 102.944 79.5303 104.117 79.5303C104.872 79.5303 105.71 79.5303 106.297 79.9429C106.968 80.2729 107.387 81.0156 107.722 81.6758C108.057 82.3359 108.141 82.9961 108.141 83.7387C108.141 85.2241 108.309 85.2241 108.309 86.7094C108.309 87.4521 107.974 88.1122 107.554 88.6899C107.219 89.35 106.968 90.2577 106.381 90.5878C104.956 91.0004 104.034 90.7528 103.279 90.7528ZM4.44415 81.8408C3.4382 81.8408 2.93522 82.831 2.93522 83.7387C2.93522 85.2241 2.5999 85.2241 2.5999 86.7094C2.5999 87.6996 3.4382 88.3598 4.44415 88.3598C5.53393 88.3598 5.53394 88.6899 6.70755 88.6899C7.79733 88.6899 7.79733 88.2773 8.97094 88.2773C10.0607 88.2773 10.0607 88.3598 11.2343 88.3598C12.3241 88.3598 12.3241 88.6899 13.4977 88.6899C14.5875 88.6899 14.5875 88.3598 15.7611 88.3598C16.8509 88.3598 16.8509 88.3598 18.0245 88.3598C19.1143 88.3598 19.1143 88.0297 20.2879 88.0297C21.3777 88.0297 21.3777 88.1947 22.5513 88.1947C23.6411 88.1947 23.6411 88.6899 24.8147 88.6899C25.9045 88.6899 25.9045 88.1947 27.0781 88.1947C28.1679 88.1947 28.1679 88.6899 29.3415 88.6899C30.4313 88.6899 30.4313 88.6073 31.6049 88.6073C32.6947 88.6073 32.6947 88.4423 33.8683 88.4423C34.9581 88.4423 34.9581 88.8549 36.1317 88.8549C37.2215 88.8549 37.2215 88.4423 38.3951 88.4423C39.4849 88.4423 39.4849 88.1947 40.6585 88.1947C41.7483 88.1947 41.7483 88.1947 42.9219 88.1947C44.0117 88.1947 44.0117 88.7724 45.1853 88.7724C46.2751 88.7724 46.2751 88.8549 47.4487 88.8549C48.5385 88.8549 48.5385 88.6073 49.7121 88.6073C50.8018 88.6073 50.8018 88.6899 51.9755 88.6899C53.0652 88.6899 53.0652 88.4423 54.2389 88.4423C55.3286 88.4423 55.3286 88.1947 56.5022 88.1947C57.592 88.1947 57.592 88.6073 58.7656 88.6073C59.8554 88.6073 59.8554 88.8549 61.029 88.8549C62.1188 88.8549 62.1188 88.6073 63.2924 88.6073C64.3822 88.6073 64.3822 88.5248 65.5558 88.5248C66.6456 88.5248 66.6456 88.1947 67.8192 88.1947C68.909 88.1947 68.909 88.5248 70.0826 88.5248C71.1724 88.5248 71.1724 88.6899 72.346 88.6899C73.4358 88.6899 73.4358 88.6073 74.6094 88.6073C75.6992 88.6073 75.6992 88.6073 76.8728 88.6073C77.9626 88.6073 77.9626 88.2773 79.1362 88.2773C80.226 88.2773 80.226 88.1947 81.3996 88.1947C82.4894 88.1947 82.4894 88.7724 83.663 88.7724C84.7528 88.7724 84.7528 88.1122 85.9264 88.1122C87.0162 88.1122 87.0162 88.6899 88.1898 88.6899C89.2796 88.6899 89.2796 88.3598 90.4532 88.3598C91.543 88.3598 91.543 88.7724 92.7166 88.7724C93.8064 88.7724 93.8064 88.5248 94.98 88.5248C96.0698 88.5248 96.0698 88.9374 97.2434 88.9374C98.3332 88.9374 98.3332 88.1947 99.5068 88.1947C100.597 88.1947 100.597 88.8549 101.77 88.8549C102.944 88.8549 102.86 88.5248 104.034 88.5248C105.04 88.5248 105.626 87.7822 105.626 86.8744C105.626 85.3891 105.794 85.3891 105.794 83.9038C105.794 82.9135 105.04 82.0058 104.034 82.0058C102.944 82.0058 102.944 82.3359 101.77 82.3359C100.68 82.3359 100.68 82.4184 99.5068 82.4184C98.417 82.4184 98.417 82.5835 97.2434 82.5835C96.1536 82.5835 96.1536 81.7583 94.98 81.7583C93.8902 81.7583 93.8902 82.2534 92.7166 82.2534C91.6268 82.2534 91.6268 82.0884 90.4532 82.0884C89.3634 82.0884 89.3634 81.9233 88.1898 81.9233C87.1 81.9233 87.1 82.1709 85.9264 82.1709C84.8366 82.1709 84.8366 82.3359 83.663 82.3359C82.5732 82.3359 82.5732 81.9233 81.3996 81.9233C80.3098 81.9233 80.3098 82.3359 79.1362 82.3359C78.0464 82.3359 78.0464 82.4184 76.8728 82.4184C75.783 82.4184 75.783 82.2534 74.6094 82.2534C73.5196 82.2534 73.5196 81.9233 72.346 81.9233C71.2562 81.9233 71.2562 82.3359 70.0826 82.3359C68.9928 82.3359 68.9928 82.4184 67.8192 82.4184C66.7294 82.4184 66.7294 82.4184 65.5558 82.4184C64.466 82.4184 64.466 82.1709 63.2924 82.1709C62.2027 82.1709 62.2027 82.666 61.029 82.666C59.9393 82.666 59.9393 82.5835 58.7656 82.5835C57.6759 82.5835 57.6759 82.5835 56.5022 82.5835C55.4125 82.5835 55.4125 82.3359 54.2389 82.3359C53.1491 82.3359 53.1491 82.5835 51.9755 82.5835C50.8857 82.5835 50.8857 82.666 49.7121 82.666C48.6223 82.666 48.6223 82.4184 47.4487 82.4184C46.3589 82.4184 46.3589 82.4184 45.1853 82.4184C44.0955 82.4184 44.0955 82.1709 42.9219 82.1709C41.8321 82.1709 41.8321 82.666 40.6585 82.666C39.5687 82.666 39.5687 82.5835 38.3951 82.5835C37.3053 82.5835 37.3053 82.0884 36.1317 82.0884C35.0419 82.0884 35.0419 82.0058 33.8683 82.0058C32.7785 82.0058 32.7785 81.9233 31.6049 81.9233C30.5151 81.9233 30.5151 82.4184 29.3415 82.4184C28.2517 82.4184 28.2517 82.5835 27.0781 82.5835C25.9883 82.5835 25.9883 82.501 24.8147 82.501C23.7249 82.501 23.7249 82.2534 22.5513 82.2534C21.4615 82.2534 21.4615 82.0884 20.2879 82.0884C19.1981 82.0884 19.1981 82.501 18.0245 82.501C16.9347 82.501 16.9347 82.0884 15.7611 82.0884C14.6713 82.0884 14.6713 82.0058 13.4977 82.0058C12.408 82.0058 12.408 82.0884 11.2343 82.0884C10.1446 82.0884 10.1446 82.5835 8.97094 82.5835C7.88116 82.5835 7.88116 82.1709 6.70755 82.0884C5.53394 81.8408 5.53393 81.8408 4.44415 81.8408Z" fill="#2B292D"/>
<path d="M106.129 79.0352C105.207 79.6954 104.956 79.1177 103.782 79.1177C102.692 79.1177 102.692 78.7051 101.519 78.7051C100.429 78.7051 100.429 79.1177 99.2553 79.1177C98.1655 79.1177 98.1655 78.7051 96.9919 78.7051C95.9021 78.7051 95.9021 79.1177 94.7285 79.1177C93.6387 79.1177 93.6387 78.7877 92.4651 78.7877C91.3753 78.7877 91.3753 79.0352 90.2017 79.0352C89.1119 79.0352 89.1119 78.8702 87.9383 78.8702C86.8485 78.8702 86.8485 78.7051 85.6749 78.7051C84.5851 78.7051 84.5851 78.7051 83.4115 78.7051C82.3217 78.7051 82.3217 78.7877 81.1481 78.7877C80.0583 78.7877 80.0583 79.1177 78.8847 79.1177C77.7949 79.1177 77.7949 78.5401 76.6213 78.5401C75.5315 78.5401 75.5315 79.1177 74.3579 79.1177C73.2682 79.1177 73.2682 78.6226 72.0945 78.6226C71.0048 78.6226 71.0048 78.7051 69.8311 78.7051C68.7414 78.7051 68.7414 79.2003 67.5677 79.2003C66.478 79.2003 66.478 78.7051 65.3044 78.7051C64.2146 78.7051 64.2146 78.9527 63.041 78.9527C61.9512 78.9527 61.9512 79.1177 60.7776 79.1177C59.6878 79.1177 59.6878 79.2003 58.5142 79.2003C57.4244 79.2003 57.4244 78.7877 56.2508 78.7877C55.161 78.7877 55.161 78.6226 53.9874 78.6226C52.8976 78.6226 52.8976 79.1177 51.724 79.1177C50.6342 79.1177 50.6342 78.9527 49.4606 78.9527C48.3708 78.9527 48.3708 78.5401 47.1972 78.5401C46.1074 78.5401 46.1074 79.2003 44.9338 79.2003C43.844 79.2003 43.844 79.1177 42.6704 79.1177C41.5806 79.1177 41.5806 78.8702 40.407 78.8702C39.3172 78.8702 39.3172 78.7877 38.1436 78.7877C37.0538 78.7877 37.0538 79.1177 35.8802 79.1177C34.7904 79.1177 34.7904 79.0352 33.6168 79.0352C32.527 79.0352 32.527 78.7051 31.3534 78.7051C30.2636 78.7051 30.2636 78.6226 29.09 78.6226C28.0002 78.6226 28.0002 79.1177 26.8266 79.1177C25.7368 79.1177 25.7368 79.2003 24.5632 79.2003C23.4734 79.2003 23.4734 79.2828 22.2998 79.2828C21.21 79.2828 21.21 78.6226 20.0364 78.6226C18.9466 78.6226 18.9466 79.1177 17.773 79.1177C16.6833 79.1177 16.6833 78.8702 15.5096 78.8702C14.4199 78.8702 14.4199 78.9527 13.2462 78.9527C12.1565 78.9527 12.1565 78.7877 10.9828 78.7877C9.89306 78.7877 9.89306 79.1177 8.71945 79.1177C7.62967 79.1177 7.62967 79.2003 6.45606 79.2003C5.36627 79.2003 5.36627 79.2003 4.19266 79.2003C3.10288 79.2003 3.10288 79.0352 1.92926 79.0352C0.755651 79.0352 2.09692 79.6129 1.25863 78.9527C0.587993 78.4576 1.34246 78.1275 1.34246 77.3023C1.34246 76.4771 1.42629 76.4771 1.42629 75.6519C1.42629 74.8268 1.51012 74.0016 2.09692 73.5065C2.68373 72.9288 3.43819 73.0113 4.27649 73.0113C5.36627 73.0113 5.36627 72.4337 6.53989 72.4337C7.62967 72.4337 7.62967 72.9288 8.80328 72.9288C9.89306 72.9288 9.89306 72.6813 11.0667 72.6813C12.1565 72.6813 12.1565 72.3512 13.3301 72.3512C14.4199 72.3512 14.4199 72.3512 15.5935 72.3512C16.6833 72.3512 16.6833 72.6813 17.8569 72.6813C18.9466 72.6813 18.9466 73.0939 20.1203 73.0939C21.21 73.0939 21.21 72.3512 22.3837 72.3512C23.4734 72.3512 23.4734 73.0113 24.6471 73.0113C25.7368 73.0113 25.7368 72.9288 26.9104 72.9288C28.0002 72.9288 28.0002 72.5988 29.1738 72.5988C30.2636 72.5988 30.2636 73.0939 31.4372 73.0939C32.527 73.0939 32.527 72.8463 33.7006 72.8463C34.7904 72.8463 34.7904 73.1764 35.964 73.1764C37.0538 73.1764 37.0538 72.4337 38.2274 72.4337C39.3172 72.4337 39.3172 73.0113 40.4908 73.0113C41.5806 73.0113 41.5806 73.1764 42.7542 73.1764C43.844 73.1764 43.844 72.5988 45.0176 72.5988C46.1074 72.5988 46.1074 72.8463 47.281 72.8463C48.3708 72.8463 48.3708 73.0113 49.5444 73.0113C50.6342 73.0113 50.6342 72.6813 51.8078 72.6813C52.8976 72.6813 52.8976 72.5162 54.0712 72.5162C55.161 72.5162 55.161 72.3512 56.3346 72.3512C57.4244 72.3512 57.4244 72.6813 58.598 72.6813C59.6878 72.6813 59.6878 72.4337 60.8614 72.4337C61.9512 72.4337 61.9512 72.7638 63.1248 72.7638C64.2146 72.7638 64.2146 72.7638 65.3882 72.7638C66.478 72.7638 66.478 73.0939 67.6516 73.0939C68.7414 73.0939 68.7414 73.0939 69.915 73.0939C71.0048 73.0939 71.0048 73.0113 72.1784 73.0113C73.2682 73.0113 73.2682 72.4337 74.4418 72.4337C75.5315 72.4337 75.5316 72.5162 76.7052 72.5162C77.795 72.5162 77.7949 72.9288 78.9686 72.9288C80.0583 72.9288 80.0583 72.8463 81.232 72.8463C82.3217 72.8463 82.3217 72.4337 83.4954 72.4337C84.5851 72.4337 84.5851 73.1764 85.7587 73.1764C86.8485 73.1764 86.8485 73.0939 88.0221 73.0939C89.1119 73.0939 89.1119 72.5162 90.2855 72.5162C91.3753 72.5162 91.3753 72.8463 92.5489 72.8463C93.6387 72.8463 93.6387 72.9288 94.8123 72.9288C95.9021 72.9288 95.9021 73.0939 97.0757 73.0939C98.1655 73.0939 98.1655 73.1764 99.3391 73.1764C100.429 73.1764 100.429 72.5988 101.603 72.5988C102.776 72.5988 102.692 72.9288 103.866 72.9288C104.704 72.9288 105.459 73.0939 106.045 73.589C106.632 74.0841 106.632 74.9093 106.632 75.7345C106.632 76.5597 106.297 76.7247 106.548 77.5499C105.962 78.2925 106.8 78.5401 106.129 79.0352Z" fill="#82B5A5"/>
<path d="M21.7968 78.9526C21.7968 79.6128 22.0483 80.3555 21.5454 80.9331C21.1262 81.4282 20.4556 81.7583 19.7849 82.1709C19.1981 82.5009 18.6952 82.9961 17.9407 83.2436C17.3539 83.4912 16.5994 83.7387 15.9288 83.9038C15.2581 84.0688 14.5037 84.1513 13.833 84.2338C13.1624 84.3164 12.4079 83.8212 11.7373 83.8212C10.9828 83.8212 10.3122 83.9863 9.64157 83.9038C8.8871 83.8212 8.13264 84.0688 7.462 83.9038C6.70754 83.7387 6.12073 83.2436 5.53393 82.9961C4.86329 82.7485 4.10882 82.5835 3.60585 82.2534C2.93521 81.8408 2.43224 81.3457 2.09692 80.8506C1.59394 80.2729 1.67777 79.6953 1.67777 79.0352" fill="#82B5A5"/>
<path d="M43.2572 78.9526C43.2572 79.6128 43.0057 80.3555 42.5866 80.9331C42.1674 81.4282 41.4129 81.5932 40.7423 82.0058C40.1555 82.3359 39.6525 82.831 38.9819 83.0786C38.3951 83.3261 37.6406 83.3261 36.8862 83.4912C36.2155 83.6562 35.5449 83.6562 34.7904 83.7387C34.1198 83.8213 33.4491 84.3989 32.6947 84.3989C31.9402 84.3989 31.2696 84.3989 30.5151 84.3989C29.7606 84.3164 29.1738 83.7387 28.5032 83.6562C27.7487 83.4912 27.0781 83.4087 26.4075 83.1611C25.7368 82.9135 24.9824 82.7485 24.3956 82.4184C23.7249 82.0058 23.4734 81.2632 23.0543 80.7681C22.5513 80.1904 21.713 79.6953 21.713 79.0352" fill="#82B5A5"/>
<path d="M63.8793 78.9526C63.8793 79.6128 64.2146 80.5205 63.7116 81.0981C63.2924 81.5932 62.3703 81.5932 61.6997 82.0058C61.1129 82.3359 60.6937 83.0786 60.0231 83.3261C59.4363 83.5737 58.6818 83.8213 58.0112 83.9863C57.3405 84.1513 56.5023 83.5737 55.8316 83.6562C55.161 83.7387 54.4903 83.7387 53.7359 83.7387C52.9814 83.7387 52.3108 84.2338 51.6401 84.2338C50.8857 84.1513 50.2989 83.5737 49.6282 83.4912C48.8738 83.3261 48.287 82.9961 47.7002 82.7485C47.0295 82.5009 46.1912 82.666 45.6044 82.3359C44.9338 81.9233 44.2631 81.5107 43.9278 81.0156C43.4248 80.438 43.6763 79.6953 43.6763 78.9526" fill="#82B5A5"/>
<path d="M85.4234 78.9526C85.4234 79.6128 84.9205 80.3555 84.4175 80.9331C83.9983 81.4282 83.4953 82.0058 82.8247 82.4184C82.2379 82.7485 81.3996 82.5009 80.6451 82.7485C80.0583 82.9961 79.5554 83.8212 78.8009 83.9863C78.1303 84.1513 77.3758 84.2338 76.7052 84.3164C76.0345 84.3989 75.2801 84.1513 74.5256 84.1513C73.7711 84.1513 73.1005 83.9038 72.4299 83.8212C71.6754 83.7387 71.0047 83.7387 70.3341 83.6562C69.5796 83.4912 68.909 83.3261 68.3222 83.0786C67.6516 82.831 66.8971 82.666 66.3103 82.3359C65.6397 81.9233 65.1367 81.3457 64.7175 80.8506C64.2146 80.2729 64.2984 79.6128 64.2984 78.9526" fill="#82B5A5"/>
<path d="M106.213 78.9528C106.213 79.6129 105.626 80.0255 105.123 80.6031C104.704 81.0983 104.285 81.5108 103.614 81.9234C103.028 82.2535 102.441 82.5836 101.77 82.8311C101.183 83.0787 100.513 83.3263 99.8421 83.4913C99.1715 83.6563 98.5008 83.4913 97.7464 83.5738C97.0757 83.6563 96.4051 83.8214 95.6506 83.8214C94.8962 83.8214 94.2255 83.9864 93.5549 83.9039C92.8004 83.8214 92.1298 83.6563 91.4592 83.5738C90.7047 83.4088 90.0341 83.2437 89.4472 82.9962C88.7766 82.7486 87.9383 82.6661 87.4353 82.336C86.7647 81.9234 86.597 81.0983 86.1779 80.6031C85.6749 80.0255 85.5073 79.5304 85.5073 78.8702" fill="#82B5A5"/>
<path d="M31.4372 72.3512C31.2696 73.4239 32.8623 72.5987 33.9521 72.7638C35.0419 73.0113 35.1257 72.7638 36.2155 73.0113C37.3053 73.2589 37.2215 73.5064 38.3951 73.754C39.4848 74.0016 39.5687 73.589 40.6585 73.754C41.7482 74.0016 41.7482 73.919 42.838 74.1666C43.9278 74.4141 43.9278 74.4141 45.0176 74.6617C46.1074 74.9093 46.1074 75.0743 47.1972 75.3219C48.2869 75.5694 48.2869 75.5694 49.3767 75.7344C50.4665 75.982 50.5503 75.6519 51.6401 75.817C52.7299 76.0645 52.7299 76.0645 53.8197 76.3121C54.9095 76.5596 54.9095 76.6422 55.9993 76.8072C57.089 77.0548 57.089 77.2198 58.1788 77.3848C59.2686 77.6324 59.3524 77.4673 60.4422 77.6324C61.532 77.8799 61.4482 78.1275 62.6218 78.3751C63.7116 78.6226 63.7116 78.7876 64.8013 78.9527C65.8911 79.2002 65.8911 79.1177 67.0647 79.3653C68.1545 79.6128 68.2383 79.2002 69.3281 79.4478C70.4179 79.6954 70.4179 79.6128 71.5915 79.7779C72.6813 80.0254 72.6813 79.9429 73.8549 80.1079C74.9447 80.3555 74.9447 81.0157 76.0345 80.8506C77.2081 80.6856 77.2081 80.5205 78.2141 80.0254C79.22 79.5303 79.0524 79.1177 80.0583 78.6226C81.0643 78.1275 80.9804 77.9625 82.0702 77.4673C83.0762 76.9722 83.16 76.9722 84.1659 76.4771C85.1719 75.982 85.1719 75.8995 86.2617 75.4044C87.2676 74.9093 87.603 75.4869 88.6927 74.9918C89.6987 74.4967 89.6149 74.2491 90.6208 73.6715C91.6268 73.1764 92.6327 73.6715 92.4651 72.5162C92.2974 71.4435 91.5429 72.1036 90.3693 72.1036C89.2795 72.1036 89.2795 72.3512 88.1059 72.3512C87.0162 72.3512 87.0161 72.3512 85.8425 72.3512C84.7528 72.3512 84.7528 72.8463 83.5791 72.8463C82.4894 72.8463 82.4894 72.3512 81.3158 72.3512C80.226 72.3512 80.226 72.7638 79.0523 72.7638C77.9626 72.7638 77.9626 72.1861 76.789 72.1861C75.6992 72.1861 75.6992 72.8463 74.5256 72.8463C73.4358 72.8463 73.4358 72.5987 72.2622 72.5987C71.1724 72.5987 71.1724 72.8463 69.9988 72.8463C68.909 72.8463 68.909 72.1036 67.7354 72.1036C66.6456 72.1036 66.6456 72.3512 65.472 72.3512C64.3822 72.3512 64.3822 72.5162 63.2086 72.5162C62.1188 72.5162 62.1188 72.3512 60.9452 72.3512C59.8554 72.3512 59.8554 72.5162 58.6818 72.5162C57.592 72.5162 57.592 72.4337 56.4184 72.4337C55.3286 72.4337 55.3286 72.4337 54.155 72.4337C53.0652 72.4337 53.0652 72.5987 51.8916 72.5987C50.8018 72.5987 50.8018 72.2687 49.6282 72.2687C48.5384 72.2687 48.5384 72.4337 47.3648 72.4337C46.275 72.4337 46.275 71.9386 45.1014 71.9386C44.0116 71.9386 44.0116 72.5987 42.838 72.5987C41.7482 72.5987 41.7482 72.6813 40.5746 72.6813C39.4848 72.6813 39.4848 72.1036 38.3112 72.1036C37.2215 72.1036 37.2215 71.9386 36.0478 71.9386C34.9581 71.9386 34.9581 72.3512 33.8683 72.1036C32.6947 71.8561 31.6049 71.2784 31.4372 72.3512Z" fill="#F8CF61"/>
</svg>
