<svg width="84" height="100" viewBox="0 0 84 100" fill="none" xmlns="http://www.w3.org/2000/svg">
<path d="M36.0499 26.7036C36.0499 26.9076 36.0272 27.1116 36.0045 27.3157C35.9818 27.5197 35.8909 27.701 35.8682 27.905C35.8455 28.1091 35.8909 28.3131 35.8455 28.5171C35.8001 28.7211 35.6185 28.8798 35.5504 29.0611C35.4823 29.2425 35.505 29.4692 35.4369 29.6732C35.3461 29.8545 35.2099 30.0132 35.1191 30.1946C35.0283 30.3759 34.9829 30.5799 34.8694 30.7613C34.7559 30.92 34.6878 31.1466 34.5743 31.3053C34.4608 31.464 34.2791 31.5774 34.1429 31.736C34.0067 31.8947 33.8024 31.9627 33.6435 32.0987C33.4846 32.2347 33.3711 32.4161 33.2122 32.5294C33.0533 32.6428 32.8944 32.7788 32.7128 32.8921C32.5538 33.0055 32.4176 33.1868 32.236 33.2775C32.0544 33.3682 31.8728 33.4815 31.6912 33.5495C31.5096 33.6402 31.2599 33.5949 31.0782 33.6629C30.8966 33.7309 30.715 33.9122 30.5334 33.9576C30.3291 34.0029 30.1021 33.9122 29.8978 33.9349C29.6935 33.9576 29.5119 34.0482 29.3075 34.0709C29.1032 34.0936 28.8989 34.0029 28.6946 34.0029C28.4903 34.0029 28.286 33.9802 28.1044 33.9576C27.9001 33.9349 27.6957 33.9122 27.5141 33.8895C27.3098 33.8669 27.0828 33.9802 26.8785 33.9349C26.6742 33.8895 26.5153 33.6855 26.3337 33.6402C26.152 33.5722 25.9023 33.6175 25.7207 33.5495C25.5391 33.4588 25.3575 33.3682 25.1759 33.2775C24.9943 33.1868 24.8127 33.0735 24.6538 32.9601C24.4948 32.8468 24.3586 32.6654 24.1997 32.5521C24.0408 32.4388 23.9273 32.2347 23.7911 32.0987C23.6322 31.9627 23.4733 31.8494 23.3371 31.6907C23.2009 31.532 23.1101 31.3507 22.9965 31.192C22.883 31.0333 22.5879 30.988 22.4971 30.8066C22.3836 30.6479 22.3836 30.3986 22.2928 30.2172C22.202 30.0359 21.9977 29.9225 21.9069 29.7185C21.8161 29.5372 21.8842 29.2878 21.8161 29.1065C21.748 28.9251 21.5891 28.7438 21.5437 28.5624C21.4983 28.3584 21.4756 28.1544 21.4302 27.973C21.4074 27.769 21.4074 27.565 21.3847 27.361C21.362 27.157 21.2712 26.953 21.2712 26.7489C21.2712 26.5449 21.4074 26.3409 21.4302 26.1369C21.4529 25.9329 21.3847 25.7288 21.4075 25.5248C21.4302 25.3208 21.6118 25.1621 21.6572 24.9581C21.7026 24.7541 21.7707 24.5727 21.8388 24.3914C21.9069 24.2101 21.8615 23.9607 21.9523 23.7793C22.0431 23.598 22.1339 23.4167 22.2474 23.2353C22.3382 23.054 22.4971 22.9179 22.6106 22.7366C22.7241 22.5779 22.8149 22.3966 22.9511 22.2379C23.0647 22.0792 23.269 21.9885 23.4052 21.8298C23.5414 21.6712 23.5414 21.3991 23.7003 21.2631C23.8592 21.1271 24.0635 21.0591 24.2224 20.9231C24.3813 20.8098 24.5175 20.6284 24.6765 20.5151C24.8354 20.4017 25.0397 20.3337 25.2213 20.243C25.4029 20.1524 25.5845 20.039 25.7661 19.971C25.9477 19.8803 26.1293 19.767 26.311 19.699C26.4926 19.631 26.7196 19.631 26.9239 19.5857C27.1282 19.5403 27.3098 19.4496 27.5141 19.427C27.7184 19.4043 27.9228 19.3363 28.1271 19.3363C28.3314 19.3136 28.5357 19.359 28.74 19.359C28.9443 19.359 29.1486 19.4723 29.3529 19.495C29.5573 19.5177 29.7389 19.563 29.9432 19.5857C30.1475 19.6083 30.3518 19.5857 30.5561 19.631C30.7604 19.6763 30.9193 19.8123 31.101 19.8804C31.2826 19.9484 31.5323 19.8803 31.7139 19.971C31.8955 20.0617 32.0998 20.1297 32.2587 20.2204C32.4403 20.3111 32.5765 20.4697 32.7582 20.5831C32.9171 20.6964 33.1441 20.7644 33.303 20.8778C33.4619 20.9911 33.6435 21.1271 33.7797 21.2631C33.9386 21.3991 34.0067 21.6258 34.1429 21.7618C34.2791 21.9205 34.37 22.1019 34.5062 22.2606C34.6197 22.4192 34.7332 22.6006 34.8467 22.7593C34.9602 22.9179 35.1645 23.0313 35.2553 23.2126C35.3461 23.394 35.4142 23.5753 35.505 23.7567C35.5958 23.938 35.6185 24.142 35.6866 24.3461C35.7547 24.5274 35.8001 24.7314 35.8455 24.9354C35.8909 25.1395 35.8682 25.3435 35.891 25.5475C35.9137 25.7515 36.1407 25.9102 36.1634 26.1142C36.0953 26.2729 36.0499 26.4996 36.0499 26.7036Z" fill="#9FBFFF"/>
<path d="M53.8024 12.9891C53.8024 13.1931 53.6889 13.3971 53.6662 13.6011C53.6435 13.8052 53.7116 14.0318 53.6662 14.2359C53.6208 14.4399 53.4392 14.5986 53.3711 14.8026C53.303 15.0066 53.3711 15.256 53.2803 15.4373C53.1895 15.6186 53.0759 15.8 52.9624 15.9813C52.8489 16.1627 52.6219 16.2534 52.4857 16.4121C52.3495 16.5707 52.2814 16.7747 52.1452 16.9334C52.009 17.0694 51.8501 17.2281 51.6912 17.3641C51.5323 17.5001 51.3733 17.6362 51.2144 17.7495C51.0328 17.8628 50.8058 17.8628 50.6242 17.9535C50.4426 18.0442 50.3064 18.2709 50.1021 18.3389C49.8978 18.4069 49.6707 18.3389 49.4664 18.3842C49.2621 18.4296 49.0805 18.5202 48.8535 18.5429C48.6492 18.5656 48.4449 18.5882 48.2405 18.5882C48.0362 18.5882 47.8092 18.6336 47.6049 18.6109C47.4006 18.5882 47.219 18.3842 47.0147 18.3389C46.8104 18.2935 46.5833 18.3389 46.4017 18.2709C46.1974 18.2029 46.0158 18.1122 45.8342 18.0215C45.6526 17.9308 45.4256 17.8855 45.2667 17.7722C45.0851 17.6588 44.9942 17.4321 44.8353 17.2961C44.6764 17.1601 44.404 17.1374 44.2678 17.0014C44.1316 16.8654 44.0408 16.6387 43.9273 16.4801C43.7911 16.3214 43.6095 16.1854 43.496 16.004C43.3824 15.8227 43.4051 15.5733 43.3143 15.392C43.2235 15.2106 43.1554 15.0066 43.0873 14.8252C43.0192 14.6212 42.8603 14.4626 42.8149 14.2585C42.7695 14.0545 42.6787 13.8505 42.656 13.6465C42.6333 13.4425 42.7014 13.2384 42.7014 13.0118C42.7014 12.8077 42.656 12.5811 42.6787 12.3997C42.7014 12.1957 42.8376 12.0143 42.883 11.8103C42.9284 11.6063 42.8603 11.3796 42.9284 11.1756C42.9965 10.9716 43.0646 10.7676 43.1554 10.5862C43.2462 10.4049 43.4051 10.2462 43.5187 10.0648C43.6322 9.88349 43.7911 9.74748 43.9273 9.5888C44.0635 9.43012 44.1316 9.2261 44.2905 9.09009C44.4267 8.95408 44.6083 8.81807 44.7672 8.70472C44.9261 8.56871 45.1532 8.52338 45.3121 8.41003C45.4937 8.29669 45.5845 8.07 45.7888 7.97933C45.9704 7.88865 46.152 7.75264 46.3563 7.68464C46.5606 7.61663 46.7877 7.66197 46.992 7.61663C47.1963 7.57129 47.4006 7.59396 47.6049 7.57129C47.8092 7.54863 48.0135 7.45795 48.2178 7.45795C48.4222 7.45795 48.6492 7.43528 48.8535 7.45795C49.0578 7.48062 49.2848 7.48062 49.4891 7.52596C49.6934 7.57129 49.8523 7.77531 50.034 7.84332C50.2383 7.91132 50.3972 8.002 50.6015 8.09267C50.7831 8.18335 51.0555 8.13801 51.2144 8.25135C51.396 8.3647 51.4641 8.61405 51.6231 8.75006C51.782 8.88607 52.0544 8.90874 52.1906 9.04475C52.3268 9.18077 52.4857 9.33945 52.6219 9.49813C52.7581 9.65681 52.8035 9.88349 52.917 10.0648C53.0305 10.2462 53.2122 10.3822 53.303 10.5635C53.3938 10.7449 53.303 11.0169 53.3711 11.1983C53.4392 11.4023 53.53 11.5836 53.5754 11.7877C53.6208 11.9917 53.6435 12.1957 53.6662 12.3997C53.6889 12.5811 53.8024 12.7851 53.8024 12.9891Z" fill="#9FBFFF"/>
<path d="M31.9636 4.39771C31.9636 4.60173 31.8955 4.78308 31.8728 4.98709C31.8501 5.19111 31.8728 5.39513 31.8274 5.57648C31.782 5.75783 31.555 5.89384 31.4869 6.07519C31.4188 6.25654 31.4869 6.50589 31.3734 6.66457C31.2826 6.82325 31.0328 6.91392 30.9193 7.0726C30.8058 7.23129 30.6469 7.32196 30.5107 7.45797C30.3745 7.59398 30.2837 7.77533 30.1248 7.88868C29.9659 8.00202 29.8751 8.20604 29.7162 8.31938C29.5572 8.41005 29.3075 8.34205 29.1259 8.41005C28.9443 8.47806 28.7854 8.56873 28.6038 8.63674C28.4222 8.68208 28.2406 8.70474 28.0362 8.72741C27.8546 8.75008 27.673 8.86343 27.4687 8.86343C27.2644 8.86343 27.0828 8.86343 26.8785 8.84076C26.6742 8.81809 26.5153 8.72741 26.3109 8.68208C26.1293 8.63674 25.9477 8.54606 25.7661 8.47806C25.5845 8.41005 25.4256 8.31938 25.244 8.2287C25.0851 8.13803 24.8354 8.13803 24.6991 8.00202C24.5402 7.88868 24.4267 7.70733 24.2905 7.57131C24.1543 7.4353 24.0862 7.23129 23.9727 7.0726C23.8592 6.91392 23.6322 6.84592 23.5414 6.66457C23.4506 6.50589 23.496 6.25654 23.4052 6.07519C23.3371 5.89384 23.11 5.75783 23.0646 5.57648C23.0192 5.39513 23.1327 5.16844 23.0873 4.98709C23.0646 4.80574 22.9738 4.60173 22.9738 4.42038C22.9738 4.21636 22.9511 4.03501 22.9738 3.83099C22.9965 3.62698 23.0646 3.44563 23.11 3.26428C23.1554 3.08293 23.2917 2.90158 23.3598 2.7429C23.4279 2.56155 23.5187 2.3802 23.6095 2.22152C23.7003 2.06284 23.7457 1.83616 23.8592 1.67748C23.9727 1.5188 24.0862 1.33745 24.2224 1.20144C24.3586 1.06542 24.5856 1.02009 24.7445 0.906744C24.9035 0.793401 25.017 0.612052 25.1986 0.521378C25.3575 0.430704 25.5391 0.31736 25.7207 0.226686C25.9023 0.15868 26.1066 0.136012 26.2882 0.0906744C26.4699 0.0453372 26.6969 0.136012 26.8785 0.113343C27.0601 0.0906744 27.2417 0 27.446 0C27.6503 0 27.8319 0.0453372 28.0135 0.0680058C28.2179 0.0906744 28.3995 0.0453372 28.6038 0.113343C28.7854 0.15868 28.9443 0.31736 29.1032 0.408035C29.2848 0.476041 29.4664 0.521378 29.6481 0.612052C29.807 0.702727 30.0567 0.702727 30.2156 0.81607C30.3745 0.929413 30.4653 1.13343 30.6015 1.26944C30.7377 1.40545 30.8966 1.54147 31.0101 1.67748C31.1236 1.83616 31.1009 2.08551 31.1917 2.24419C31.2825 2.40287 31.3734 2.56155 31.4415 2.7429C31.5096 2.92425 31.5777 3.08293 31.6231 3.28695C31.6685 3.4683 31.8274 3.62698 31.8501 3.83099C31.8501 4.01234 31.9636 4.21636 31.9636 4.39771Z" fill="#9FBFFF"/>
<path d="M82.2245 55.9462C82.2245 56.1502 82.2018 56.3542 82.2018 56.5582C82.2018 56.7623 82.2699 56.9663 82.2472 57.1703C82.2472 57.3743 82.338 57.5783 82.338 57.7823C82.338 57.9864 82.1791 58.1677 82.1564 58.3717C82.1337 58.5757 82.1564 58.7798 82.1337 58.9838C82.111 59.1878 82.1564 59.3918 82.1337 59.5958C82.111 59.7998 82.0429 59.9812 82.0429 60.1852C82.0202 60.3892 82.0656 60.5932 82.0429 60.7973C82.0202 61.0013 81.9748 61.2053 81.9521 61.3867C81.9294 61.5907 81.7932 61.772 81.7705 61.976C81.7478 62.18 81.7024 62.3614 81.657 62.5654C81.6343 62.7694 81.7251 62.9734 81.7024 63.1775C81.657 63.3815 81.5889 63.5628 81.5435 63.7669C81.4981 63.9709 81.4981 64.1749 81.4527 64.3562C81.4072 64.5603 81.3619 64.7416 81.3165 64.9456C81.271 65.1496 81.1348 65.3083 81.0894 65.5123C81.044 65.7164 81.1575 65.943 81.1121 66.1471C81.0667 66.3511 80.9078 66.5098 80.8397 66.6911C80.7943 66.8951 80.7262 67.0765 80.6581 67.2578C80.6127 67.4618 80.6581 67.6659 80.59 67.8699C80.5219 68.0512 80.3857 68.2326 80.3176 68.4139C80.2495 68.5953 80.2041 68.7993 80.136 68.9806C80.0679 69.162 79.9771 69.3433 79.909 69.5473C79.8409 69.7287 79.8863 69.9554 79.8182 70.1594C79.7501 70.3408 79.5684 70.4994 79.5003 70.6808C79.4322 70.8621 79.296 71.0208 79.2052 71.2248C79.1371 71.4062 79.2052 71.6555 79.1144 71.8369C79.0463 72.0182 78.9555 72.1996 78.8874 72.4036C78.7966 72.5849 78.7058 72.7663 78.615 72.9476C78.5242 73.129 78.5015 73.333 78.4107 73.5144C78.3199 73.6957 78.1837 73.8544 78.0928 74.0357C78.002 74.2171 77.8885 74.3758 77.7977 74.5571C77.7069 74.7385 77.6161 74.9198 77.5253 75.1012C77.4345 75.2825 77.2756 75.4185 77.1848 75.5999C77.094 75.7812 77.0713 76.0079 76.9805 76.1666C76.8897 76.3479 76.7308 76.4839 76.64 76.6653C76.5492 76.8466 76.481 77.0507 76.3902 77.2093C76.2767 77.3907 76.1632 77.5494 76.0497 77.708C75.9362 77.8894 75.8681 78.0707 75.7773 78.2521C75.6638 78.4108 75.5503 78.5921 75.4368 78.7508C75.3233 78.9095 75.2325 79.0908 75.119 79.2495C75.0055 79.4082 74.7557 79.4762 74.6422 79.6349C74.5287 79.7936 74.4606 79.9976 74.3471 80.1563C74.2336 80.3149 74.1655 80.519 74.052 80.6776C73.9385 80.8363 73.8023 80.995 73.6888 81.1537C73.5753 81.3124 73.3483 81.403 73.212 81.539C73.0758 81.6977 72.9623 81.8564 72.8488 82.0151C72.7126 82.1738 72.7353 82.4458 72.5991 82.6045C72.4629 82.7631 72.2359 82.8085 72.0997 82.9672C71.9635 83.1258 71.9181 83.3525 71.7819 83.4885C71.6457 83.6472 71.5321 83.8059 71.3959 83.9419C71.2597 84.0779 71.1008 84.2366 70.9646 84.3726C70.8284 84.5086 70.5333 84.5313 70.3971 84.6673C70.2609 84.8033 70.1474 84.9847 70.0111 85.1207C69.8749 85.2567 69.8068 85.4834 69.6479 85.6194C69.5117 85.7554 69.3074 85.8461 69.1712 86.0048C69.035 86.1408 68.808 86.1861 68.6491 86.3221C68.4902 86.4581 68.4447 86.7075 68.2858 86.8208C68.1269 86.9568 68.0134 87.1382 67.8772 87.2515C67.7183 87.3875 67.4913 87.4102 67.3324 87.5462C67.1735 87.6822 66.9919 87.7502 66.8329 87.8863C66.674 88.0223 66.6286 88.2943 66.4697 88.4076C66.3108 88.521 66.1519 88.657 65.993 88.7703C65.8341 88.8837 65.6298 88.9743 65.4709 89.0877C65.312 89.201 65.1076 89.269 64.9487 89.4051C64.7898 89.5184 64.699 89.7451 64.5401 89.8584C64.3812 89.9718 64.1769 90.0171 63.9953 90.1304C63.8364 90.2438 63.6093 90.2665 63.4277 90.3798C63.2688 90.4931 63.1099 90.6518 62.951 90.7425C62.7694 90.8558 62.5878 90.9239 62.4289 91.0372C62.2473 91.1505 62.0884 91.2412 61.9067 91.3319C61.7251 91.4226 61.5435 91.5132 61.3846 91.6266C61.203 91.7172 61.0895 91.9213 60.9079 92.0119C60.7263 92.1026 60.5447 92.1933 60.363 92.284C60.1814 92.3746 59.9544 92.3746 59.7728 92.4653C59.5912 92.556 59.4096 92.624 59.228 92.7147C59.0464 92.8053 58.9102 92.9867 58.7285 93.0774C58.5469 93.168 58.4107 93.3267 58.2064 93.4174C58.0248 93.5081 57.8432 93.5761 57.6616 93.6667C57.48 93.7574 57.2984 93.8254 57.094 93.8934C56.9124 93.9614 56.6854 93.9614 56.5038 94.0294C56.3222 94.0974 56.1179 94.1655 55.9363 94.2335C55.7547 94.3015 55.5731 94.4148 55.3914 94.5055C55.2098 94.5735 54.9828 94.5508 54.8012 94.6188C54.6196 94.6868 54.4153 94.7548 54.2337 94.8228C54.0521 94.8908 53.8931 95.0495 53.6888 95.1175C53.5072 95.1855 53.3029 95.2309 53.1213 95.2989C52.9397 95.3669 52.7127 95.3216 52.5084 95.3669C52.304 95.4122 52.1224 95.4576 51.9181 95.5256C51.7138 95.5709 51.5549 95.7749 51.3733 95.8203C51.169 95.8656 50.942 95.7296 50.7377 95.7749C50.5333 95.8203 50.3744 96.0016 50.1928 96.047C49.9885 96.0923 49.7842 96.047 49.5799 96.0923C49.3756 96.1376 49.1713 96.115 48.9669 96.1603C48.7626 96.2056 48.581 96.2963 48.3767 96.3416C48.1724 96.387 47.9908 96.523 47.8092 96.5457C47.6049 96.5683 47.3778 96.4323 47.1962 96.455C46.9919 96.4777 46.8103 96.6363 46.606 96.659C46.4017 96.6817 46.1974 96.591 45.9931 96.6137C45.7887 96.6363 45.5844 96.659 45.4028 96.6817C45.1985 96.7043 44.9942 96.727 44.8126 96.727C44.6083 96.7497 44.404 96.7497 44.2223 96.7723C44.018 96.795 43.8364 96.9537 43.6321 96.9537C43.4278 96.9764 43.2235 96.9084 43.0192 96.9084C42.8149 96.9084 42.6105 96.8857 42.4062 96.8857C42.2019 96.8857 41.9976 97.0444 41.816 97.0444C41.6117 97.0444 41.4074 96.9084 41.2031 96.9084C40.9987 96.9084 40.7944 96.8857 40.5901 96.8857C40.3858 96.8857 40.1815 96.9764 39.9772 96.9537C39.7729 96.9537 39.5686 96.8403 39.3869 96.8403C39.1826 96.8403 38.9783 96.931 38.774 96.931C38.5697 96.9084 38.3654 96.931 38.1611 96.931C37.9568 96.9084 37.7524 96.863 37.5708 96.8403C37.3665 96.8177 37.1622 96.7723 36.9806 96.7497C36.7763 96.727 36.572 96.8404 36.3677 96.8177C36.1633 96.795 35.959 96.7723 35.7774 96.7497C35.5731 96.727 35.3915 96.659 35.1872 96.6363C34.9829 96.6137 34.824 96.4097 34.6196 96.3643C34.4153 96.3416 34.2337 96.2963 34.0294 96.2736C33.8251 96.2283 33.6208 96.2963 33.4165 96.2736C33.2122 96.2283 33.0079 96.2283 32.8262 96.183C32.6219 96.1376 32.4176 96.1603 32.2133 96.115C32.009 96.0696 31.8274 96.0243 31.6231 95.9563C31.4188 95.9109 31.2598 95.7296 31.0782 95.6616C30.8739 95.6162 30.6696 95.5936 30.488 95.5482C30.2837 95.5029 30.0794 95.5029 29.8978 95.4349C29.6934 95.3896 29.4891 95.3669 29.3075 95.2989C29.1259 95.2309 28.967 95.0495 28.7627 94.9815C28.5811 94.9135 28.3541 94.9362 28.1724 94.8682C27.9908 94.8002 27.7638 94.8002 27.5822 94.7322C27.4006 94.6642 27.1963 94.6188 27.0147 94.5508C26.8331 94.4828 26.6515 94.3695 26.4698 94.3015C26.2882 94.2335 26.152 94.0294 25.9477 93.9614C25.7661 93.8934 25.5391 93.8934 25.3575 93.8027C25.1759 93.7347 24.9943 93.6214 24.8126 93.5307C24.631 93.4401 24.4267 93.3947 24.2451 93.3041C24.0635 93.2134 23.9046 93.1 23.723 93.0094C23.5414 92.9187 23.3143 92.9187 23.1327 92.828C22.9511 92.7373 22.8149 92.5787 22.6333 92.488C22.4517 92.3973 22.2701 92.3293 22.0885 92.216C21.9069 92.1253 21.7252 92.0346 21.5663 91.9213C21.3847 91.8306 21.2031 91.7399 21.0215 91.6492C20.8399 91.5586 20.6583 91.4679 20.4767 91.3772C20.2951 91.2865 20.1589 91.1052 19.9999 91.0145C19.8183 90.9012 19.5913 90.9012 19.4324 90.7878C19.2508 90.6745 19.1146 90.5385 18.933 90.4478C18.7741 90.3345 18.5698 90.2665 18.4108 90.1531C18.2519 90.0398 18.093 89.9264 17.9114 89.8131C17.7525 89.6997 17.5936 89.5637 17.4347 89.4504C17.2758 89.337 17.185 89.1104 17.0261 88.9743C16.8671 88.861 16.7082 88.7477 16.5266 88.6343C16.3677 88.521 16.118 88.4983 15.9591 88.385C15.8002 88.2716 15.6413 88.1356 15.4824 88.0223C15.3235 87.8862 15.2553 87.6596 15.0964 87.5236C14.9375 87.3875 14.7332 87.3422 14.5743 87.2062C14.4154 87.0702 14.2111 87.0248 14.0522 86.8888C13.8933 86.7528 13.7344 86.6168 13.5981 86.5035C13.4392 86.3675 13.4392 86.0728 13.303 85.9368C13.1668 85.8007 12.9852 85.6874 12.849 85.5514C12.7128 85.4154 12.5539 85.2794 12.4177 85.1434C12.2815 85.0073 12.1453 84.8487 12.009 84.69C11.8728 84.554 11.6912 84.4406 11.5323 84.3046C11.3961 84.1686 11.1691 84.1006 11.0329 83.9419C10.8967 83.8059 10.7605 83.6472 10.6243 83.4885C10.4881 83.3299 10.4654 83.1032 10.3291 82.9445C10.1929 82.7858 9.96592 82.7405 9.82971 82.5818C9.6935 82.4231 9.55729 82.2871 9.44379 82.1284C9.30758 81.9697 9.30758 81.7204 9.17137 81.5617C9.03516 81.403 8.94436 81.2443 8.80815 81.0857C8.69464 80.927 8.55843 80.7683 8.44492 80.6096C8.33142 80.451 8.0817 80.3829 7.96819 80.2243C7.85469 80.0656 7.83199 79.8389 7.71848 79.6575C7.60497 79.4989 7.44606 79.3629 7.33256 79.1815C7.21905 79.0228 7.06014 78.8868 6.94663 78.7281C6.83312 78.5695 6.67421 78.4108 6.58341 78.2521C6.4699 78.0934 6.4699 77.8441 6.35639 77.6854C6.24289 77.504 6.19748 77.3227 6.08398 77.1413C5.97047 76.96 5.69805 76.9146 5.60725 76.7333C5.51644 76.5519 5.56185 76.3026 5.47104 76.1212C5.38023 75.9399 5.13052 75.8492 5.03971 75.6679C4.94891 75.4865 4.97161 75.2598 4.8808 75.0785C4.79 74.8971 4.65379 74.7385 4.56298 74.5571C4.47218 74.3758 4.29057 74.2397 4.19976 74.0584C4.10895 73.877 4.15436 73.6277 4.06355 73.4464C3.97275 73.265 3.74573 73.1517 3.65493 72.9703C3.56412 72.789 3.63223 72.5396 3.56412 72.3583C3.47332 72.1769 3.42791 71.9729 3.35981 71.7915C3.2917 71.6102 3.13279 71.4515 3.06469 71.2702C2.99659 71.0888 2.99659 70.8621 2.92848 70.6808C2.86038 70.4994 2.72417 70.3408 2.65606 70.1367C2.58796 69.9554 2.42905 69.7967 2.36095 69.5927C2.29284 69.4113 2.33825 69.1847 2.27014 68.9806C2.20204 68.7993 2.04313 68.6406 1.97502 68.4366C1.90692 68.2552 1.83881 68.0512 1.79341 67.8699C1.72531 67.6885 1.72531 67.4618 1.6572 67.2805C1.6118 67.0765 1.5664 66.8951 1.49829 66.6911C1.45289 66.4871 1.29398 66.3284 1.24858 66.1244C1.20317 65.9204 1.24858 65.7164 1.20317 65.5123C1.15777 65.3083 1.22588 65.1043 1.18047 64.9003C1.13507 64.6963 1.08967 64.5149 1.04426 64.3109C0.998862 64.1069 0.839952 63.9482 0.794549 63.7442C0.749147 63.5402 0.681042 63.3588 0.635639 63.1548C0.590237 62.9508 0.567535 62.7468 0.544834 62.5654C0.522132 62.3614 0.544834 62.1574 0.522132 61.9534C0.499431 61.7493 0.47673 61.5453 0.454028 61.364C0.431327 61.16 0.431327 60.956 0.408625 60.7746C0.385924 60.5706 0.340521 60.3666 0.340521 60.1852C0.31782 59.9812 0.385924 59.7772 0.363223 59.5732C0.340521 59.3691 0.136208 59.1878 0.113507 58.9838C0.0908056 58.7798 0.227014 58.5757 0.227014 58.3717C0.204313 58.1677 0.113507 57.9864 0.113507 57.7823C0.113507 57.5783 0.113507 57.3743 0.113507 57.1703C0.113507 56.9663 0 56.7623 0 56.5582C0 56.3542 0.181611 56.1502 0.181611 55.9462C0.181611 55.7422 0.0681042 55.5381 0.0908056 55.3341C0.0908056 55.1301 0.204313 54.9488 0.227014 54.7448C0.249716 54.5407 0.272417 54.3594 0.295118 54.1554C0.31782 53.9513 0.181611 53.7473 0.204313 53.5433C0.227014 53.3393 0.295118 53.1579 0.340521 52.9539C0.363223 52.7499 0.47673 52.5686 0.522132 52.3645C0.544834 52.1605 0.567535 51.9565 0.590237 51.7752C0.635639 51.5711 0.567535 51.3671 0.612938 51.1631C0.658341 50.9591 0.839952 50.8004 0.885355 50.6191C0.930758 50.415 0.953459 50.2337 0.998862 50.0297C1.04426 49.8257 0.930758 49.599 0.976161 49.395C1.02156 49.1909 1.18047 49.0323 1.22588 48.8509C1.27128 48.6696 1.40749 48.4882 1.47559 48.3069C1.52099 48.1255 1.45289 47.8762 1.52099 47.6948C1.5891 47.5135 1.5891 47.3094 1.6572 47.1054C1.72531 46.9241 1.86152 46.7427 1.92962 46.5614C1.99772 46.38 1.97502 46.1533 2.04313 45.972C2.11123 45.7906 2.33825 45.6546 2.40635 45.4506C2.47445 45.2693 2.54256 45.0653 2.61066 44.8839C2.67877 44.7026 2.63336 44.4759 2.70147 44.2719C2.76957 44.0905 2.88308 43.9092 2.95118 43.7278C3.01929 43.5465 3.1782 43.3878 3.2463 43.2064C3.31441 43.0251 3.2009 42.7531 3.2917 42.5717C3.35981 42.3904 3.60952 42.277 3.70033 42.0957C3.76843 41.9143 3.67763 41.665 3.76843 41.4609C3.83654 41.2796 3.95005 41.0982 4.04085 40.9169C4.10895 40.7356 4.26787 40.5769 4.35867 40.3955C4.44948 40.2142 4.56298 40.0555 4.65379 39.8741C4.74459 39.6928 4.69919 39.4661 4.79 39.2848C4.8808 39.1034 5.06241 38.9674 5.13052 38.786C5.22132 38.6047 5.31213 38.4234 5.38023 38.242C5.47104 38.0607 5.47104 37.834 5.53914 37.6526C5.62995 37.4713 5.67535 37.2673 5.74346 37.0859C5.83426 36.9046 6.06128 36.7912 6.15208 36.6099C6.24289 36.4285 6.24289 36.2018 6.33369 36.0205C6.4245 35.8391 6.60611 35.7031 6.69692 35.5218C6.78772 35.3404 6.81042 35.1137 6.90123 34.9551C6.99203 34.7737 6.99203 34.547 7.08284 34.3657C7.17365 34.1843 7.28715 34.0256 7.37796 33.8443C7.46876 33.6629 7.74118 33.5723 7.83199 33.3909C7.92279 33.2096 7.83199 32.9376 7.92279 32.7562C8.0136 32.5749 8.19521 32.4388 8.28601 32.2575C8.37682 32.0761 8.46763 31.8948 8.55843 31.7134C8.64924 31.5321 8.71734 31.3281 8.80815 31.1694C8.92165 30.9881 9.05786 30.8294 9.14867 30.6707C9.26217 30.4893 9.35298 30.308 9.44379 30.1493C9.55729 29.9453 9.6708 29.7639 9.7389 29.6279C9.94322 29.2879 9.82971 29.2879 10.1248 29.2199C10.4199 29.1519 10.3972 29.0612 10.7151 29.0612C11.0102 29.0612 11.0102 29.2426 11.328 29.2426C11.6231 29.2426 11.6231 29.1519 11.9409 29.1519C12.2361 29.1519 12.2361 29.2426 12.5539 29.2426C12.849 29.2426 12.849 29.1519 13.1668 29.1519C13.4619 29.1519 13.4619 29.2426 13.7798 29.2426C14.0749 29.2426 14.0749 29.0839 14.3927 29.0839C14.6878 29.0839 14.6878 29.1972 15.0056 29.1972C15.3007 29.1972 15.3008 29.0839 15.6186 29.0839C15.9137 29.0839 15.9137 29.0839 16.2315 29.0839C16.5266 29.0839 16.5266 29.0612 16.8444 29.0612C17.1396 29.0612 17.1396 29.1972 17.4574 29.1972C17.7525 29.1972 17.7525 29.1292 18.0703 29.1292C18.3654 29.1292 18.3654 29.1292 18.6833 29.1292C18.9784 29.1292 18.9784 29.1519 19.2962 29.1519C19.5913 29.1519 19.5913 29.0839 19.9091 29.0839C20.2043 29.0839 20.2043 29.1519 20.5221 29.1519C20.8172 29.1519 20.8172 29.1066 21.135 29.1066C21.4301 29.1066 21.4301 29.1746 21.748 29.1746C22.0431 29.1746 22.0431 29.0839 22.3609 29.0839C22.656 29.0839 22.656 29.1519 22.9738 29.1519C23.2689 29.1519 23.2689 29.0612 23.5868 29.0612C23.8819 29.0612 23.8819 29.0839 24.1997 29.0839C24.4948 29.0839 24.4948 29.1066 24.8126 29.1066C25.1078 29.1066 25.1078 29.0839 25.4256 29.0612C25.7207 29.0612 25.7207 29.0159 26.0385 28.9932C26.3336 28.9932 26.3336 29.0385 26.6515 29.0385C26.9466 29.0385 26.9466 29.0839 27.2644 29.0839C27.5595 29.0839 27.5595 29.1292 27.8773 29.1292C28.1724 29.1292 28.1724 29.1519 28.4903 29.1519C28.7854 29.1519 28.7854 29.1066 29.1032 29.1066C29.3983 29.1066 29.3983 29.1066 29.7161 29.1066C30.0113 29.1066 30.0113 28.9932 30.3291 28.9932C30.6242 28.9932 30.6242 29.0612 30.942 29.0612C31.2371 29.0612 31.2371 29.1292 31.555 29.1292C31.8501 29.1292 31.8501 29.0159 32.1679 29.0159C32.463 29.0159 32.463 29.0839 32.7808 29.0839C33.076 29.0839 33.076 29.0612 33.3938 29.0612C33.6889 29.0612 33.6889 29.0839 34.0067 29.0839C34.3018 29.0839 34.3018 29.1066 34.6196 29.1066C34.9148 29.1066 34.9148 29.1066 35.2326 29.1066C35.5277 29.1066 35.5277 28.9932 35.8455 28.9932C36.1406 28.9932 36.1406 29.0159 36.4585 29.0159C36.7536 29.0159 36.7536 29.1292 37.0714 29.1292C37.3665 29.1292 37.3665 29.0839 37.6843 29.0839C37.9795 29.0839 37.9795 29.1066 38.2973 29.1066C38.5924 29.1066 38.5924 29.1519 38.9102 29.1519C39.2053 29.1519 39.2053 29.0612 39.5232 29.0612C39.8183 29.0612 39.8183 29.1066 40.1361 29.1066C40.4312 29.1066 40.4312 29.0839 40.749 29.0839C41.0441 29.0839 41.0441 29.0159 41.362 29.0159C41.6571 29.0159 41.6571 29.0612 41.9749 29.0612C42.27 29.0612 42.27 29.1292 42.5878 29.1292C42.883 29.1292 42.883 29.1066 43.2008 29.1066C43.4959 29.1066 43.4959 29.0839 43.8137 29.0839C44.1088 29.0839 44.1088 29.0839 44.4267 29.0839C44.7218 29.0839 44.7218 29.1066 45.0396 29.1066C45.3347 29.1066 45.3347 29.0159 45.6525 29.0159C45.9477 29.0159 45.9477 29.0159 46.2655 29.0159C46.5606 29.0159 46.5606 29.1519 46.8784 29.1519C47.1735 29.1519 47.1735 29.1066 47.4913 29.1066C47.7865 29.1066 47.7865 29.1066 48.1043 29.1066C48.3994 29.1066 48.3994 29.1519 48.7172 29.1519C49.0123 29.1519 49.0123 28.9705 49.3302 28.9705C49.6253 28.9705 49.6253 29.0612 49.9431 29.0612C50.2382 29.0612 50.2382 29.0839 50.556 29.0839C50.8512 29.0839 50.8512 29.1066 51.169 29.1066C51.4641 29.1066 51.4641 29.1519 51.7819 29.1519C52.077 29.1519 52.077 29.0159 52.3949 29.0159C52.69 29.0159 52.69 29.1746 53.0078 29.1746C53.3029 29.1746 53.3029 28.9932 53.6207 28.9932C53.9158 28.9932 53.9158 29.0839 54.2337 29.0839C54.5288 29.0839 54.5288 29.0612 54.8466 29.0612C55.1417 29.0612 55.1417 29.0839 55.4595 29.0839C55.7547 29.0839 55.7547 28.9479 56.0725 28.9479C56.3676 28.9479 56.3676 28.9705 56.6854 28.9705C56.9805 28.9705 56.9805 29.0612 57.2984 29.0612C57.5935 29.0612 57.5935 29.1519 57.9113 29.1519C58.2064 29.1519 58.2064 29.0385 58.5242 29.0385C58.8193 29.0385 58.8194 29.0385 59.1372 29.0385C59.4323 29.0385 59.4323 28.9932 59.7501 28.9932C60.0452 28.9932 60.0452 29.1292 60.363 29.1292C60.6582 29.1292 60.6582 29.0385 60.976 29.0385C61.2711 29.0385 61.2711 28.9932 61.5889 28.9932C61.884 28.9932 61.884 29.1519 62.2019 29.1519C62.497 29.1519 62.497 28.9479 62.8148 28.9479C63.1099 28.9479 63.1099 29.0839 63.4277 29.0839C63.7229 29.0839 63.7229 28.9479 64.0407 28.9479C64.3358 28.9479 64.3358 29.0159 64.6536 29.0159C64.9487 29.0159 64.9487 28.9932 65.2666 28.9932C65.5617 28.9932 65.5617 29.0159 65.8795 29.0159C66.1746 29.0159 66.1746 29.1292 66.4924 29.1292C66.7875 29.1292 66.7875 29.0839 67.1054 29.0839C67.4005 29.0839 67.4005 29.1292 67.7183 29.1292C68.0134 29.1292 68.0134 29.1292 68.3312 29.1292C68.6264 29.1292 68.6264 29.0159 68.9442 29.0159C69.2393 29.0159 69.2393 29.1292 69.5571 29.1292C69.8522 29.1292 69.8522 29.0839 70.1701 29.0839C70.4652 29.0839 70.4652 29.1746 70.783 29.1746C71.0781 29.1746 71.0781 29.1066 71.3959 29.1066C71.691 29.1066 71.6911 29.1066 72.0089 29.1066C72.304 29.1066 72.304 28.9705 72.6218 28.9705C72.9169 28.9705 72.9396 28.9479 73.2347 29.0159C73.5299 29.0839 73.4164 29.1972 73.598 29.5373C73.6888 29.6733 73.6661 29.9226 73.7796 30.1266C73.8704 30.2853 74.052 30.4213 74.1428 30.6027C74.2336 30.7614 74.279 30.9654 74.3925 31.1467C74.4833 31.3054 74.5741 31.4868 74.6876 31.6681C74.7784 31.8268 74.8238 32.0308 74.9374 32.2122C75.0282 32.3935 75.2098 32.5295 75.3006 32.7109C75.3914 32.8922 75.5276 33.0282 75.6184 33.2322C75.7092 33.4136 75.7092 33.6403 75.8 33.8216C75.8908 34.003 76.0951 34.1163 76.1859 34.2977C76.2767 34.479 76.2994 34.683 76.3902 34.8644C76.481 35.0457 76.6627 35.1817 76.7535 35.3631C76.8443 35.5444 76.9124 35.7258 77.0032 35.9071C77.094 36.0885 77.2302 36.2472 77.2983 36.4285C77.3891 36.6099 77.3437 36.8592 77.4345 37.0406C77.5253 37.2219 77.6615 37.3806 77.7523 37.5619C77.8431 37.7433 77.9112 37.9246 78.002 38.106C78.0928 38.2873 78.2518 38.4234 78.3426 38.6047C78.4334 38.786 78.4107 39.0127 78.4788 39.1941C78.5696 39.3754 78.6831 39.5341 78.7512 39.7381C78.842 39.9195 78.9328 40.1008 79.0236 40.2822C79.1144 40.4635 79.1825 40.6449 79.2733 40.8262C79.3414 41.0076 79.4095 41.2116 79.4776 41.3929C79.5457 41.5743 79.5684 41.801 79.6365 41.9823C79.7046 42.1637 79.909 42.2997 79.9771 42.5037C80.0452 42.6851 80.0906 42.8891 80.1814 43.0704C80.2495 43.2518 80.2041 43.5011 80.2722 43.6825C80.3403 43.8638 80.5446 43.9998 80.6127 44.2038C80.6808 44.3852 80.7943 44.5665 80.8624 44.7479C80.9305 44.9292 80.9078 45.1559 80.9759 45.3599C81.044 45.5413 81.044 45.768 81.1121 45.9493C81.1802 46.1307 81.4072 46.2667 81.4754 46.4707C81.5435 46.6521 81.5435 46.8787 81.5889 47.0601C81.657 47.2414 81.6116 47.4681 81.657 47.6721C81.7251 47.8762 81.8386 48.0348 81.9067 48.2389C81.9748 48.4429 81.9521 48.6469 81.9975 48.8509C82.0429 49.0549 82.1337 49.2363 82.1791 49.4176C82.2245 49.6216 82.2472 49.8257 82.2926 50.007C82.338 50.211 82.4288 50.3924 82.4742 50.5737C82.5196 50.7777 82.6558 50.9364 82.7012 51.1404C82.7466 51.3445 82.7466 51.5485 82.792 51.7298C82.8374 51.9338 82.9282 52.1152 82.9736 52.3192C83.0191 52.5232 83.0418 52.7272 83.0645 52.9086C83.0872 53.1126 82.9737 53.3393 82.9964 53.5206C83.0191 53.7247 83.0191 53.9287 83.0191 54.11C83.0418 54.314 83.0418 54.5181 83.0645 54.6994C83.0872 54.9034 83.2007 55.0848 83.2007 55.2888C82.2926 55.5382 82.2245 55.7422 82.2245 55.9462Z" fill="#2B292D"/>
<path d="M77.0032 29.3106C76.7989 29.5373 76.64 29.3559 76.3449 29.3559C76.0498 29.3559 76.0498 29.3333 75.7319 29.3333C75.4368 29.3333 75.4368 29.1973 75.119 29.1973C74.8239 29.1973 74.8239 29.2653 74.5061 29.2653C74.211 29.2653 74.211 29.1746 73.8931 29.1746C73.598 29.1746 73.598 29.1746 73.2802 29.1746C72.9851 29.1746 72.9851 29.3786 72.6673 29.3786C72.3721 29.3786 72.3721 29.3786 72.0543 29.3786C71.7592 29.3786 71.7592 29.3786 71.4414 29.3786C71.1463 29.3786 71.1463 29.1973 70.8284 29.1973C70.5333 29.1973 70.5333 29.3559 70.2155 29.3559C69.8977 29.3559 69.9204 29.1973 69.6026 29.1973C69.3074 29.1973 69.3074 29.3106 68.9896 29.3106C68.6945 29.3106 68.6945 29.3786 68.3767 29.3786C68.0816 29.3786 68.0816 29.2199 67.7638 29.2199C67.4686 29.2199 67.4686 29.3333 67.1508 29.3333C66.8557 29.3333 66.8557 29.1746 66.5379 29.1746C66.2428 29.1746 66.2428 29.2199 65.9249 29.2199C65.6298 29.2199 65.6298 29.2879 65.312 29.2879C65.0169 29.2879 65.0169 29.2653 64.6991 29.2653C64.4039 29.2653 64.4039 29.2426 64.0861 29.2426C63.791 29.2426 63.791 29.3559 63.4732 29.3559C63.1781 29.3559 63.1781 29.1973 62.8602 29.1973C62.5651 29.1973 62.5651 29.1519 62.2473 29.1519C61.9522 29.1519 61.9522 29.1519 61.6344 29.1519C61.3393 29.1519 61.3393 29.2653 61.0214 29.2653C60.7263 29.2653 60.7263 29.3106 60.4085 29.3106C60.1134 29.3106 60.1134 29.3333 59.7956 29.3333C59.5004 29.3333 59.5004 29.2879 59.1826 29.2879C58.8875 29.2879 58.8875 29.1519 58.5697 29.1519C58.2746 29.1519 58.2746 29.1746 57.9567 29.1746C57.6616 29.1746 57.6616 29.1746 57.3438 29.1746C57.0487 29.1746 57.0487 29.2426 56.7309 29.2426C56.4357 29.2426 56.4357 29.1973 56.1179 29.1973C55.8228 29.1973 55.8228 29.1746 55.505 29.1746C55.2099 29.1746 55.2099 29.3333 54.8921 29.3333C54.5969 29.3333 54.5969 29.2199 54.2791 29.2199C53.984 29.2199 53.984 29.3333 53.6662 29.3333C53.3711 29.3333 53.3711 29.2879 53.0532 29.2879C52.7581 29.2879 52.7581 29.1746 52.4403 29.1746C52.1452 29.1746 52.1452 29.2199 51.8274 29.2199C51.5322 29.2199 51.5322 29.3559 51.2144 29.3559C50.9193 29.3559 50.9193 29.2879 50.6015 29.2879C50.3064 29.2879 50.3064 29.3106 49.9885 29.3106C49.6934 29.3106 49.6934 29.2879 49.3756 29.2879C49.0805 29.2879 49.0805 29.1746 48.7627 29.1746C48.4676 29.1746 48.4676 29.2199 48.1497 29.2199C47.8546 29.2199 47.8546 29.2653 47.5368 29.2653C47.2417 29.2653 47.2417 29.3333 46.9239 29.3333C46.6287 29.3333 46.6287 29.2653 46.3109 29.2653C46.0158 29.2653 46.0158 29.2426 45.698 29.2426C45.4029 29.2426 45.4029 29.2879 45.085 29.2879C44.7899 29.2879 44.7899 29.3333 44.4721 29.3333C44.177 29.3333 44.177 29.3559 43.8592 29.3559C43.564 29.3559 43.5641 29.3333 43.2462 29.3333C42.9511 29.3333 42.9511 29.2426 42.6333 29.2426C42.3382 29.2426 42.3382 29.3333 42.0204 29.3333C41.7252 29.3333 41.7252 29.2879 41.4074 29.2879C41.1123 29.2879 41.1123 29.4013 40.7945 29.4013C40.4994 29.4013 40.4994 29.2426 40.1815 29.2426C39.8864 29.2426 39.8864 29.2426 39.5686 29.2426C39.2735 29.2426 39.2735 29.1973 38.9557 29.1973C38.6605 29.1973 38.6605 29.3333 38.3427 29.3333C38.0476 29.3333 38.0476 29.3559 37.7298 29.3559C37.4347 29.3559 37.4347 29.2426 37.1169 29.2426C36.8217 29.2426 36.8217 29.2879 36.5039 29.2879C36.2088 29.2879 36.2088 29.2199 35.891 29.2199C35.5959 29.2199 35.5959 29.2653 35.278 29.2653C34.9829 29.2653 34.9829 29.2653 34.6651 29.2653C34.37 29.2653 34.37 29.2426 34.0522 29.2426C33.757 29.2426 33.757 29.1746 33.4392 29.1746C33.1441 29.1746 33.1441 29.2426 32.8263 29.2426C32.5312 29.2426 32.5312 29.2653 32.2133 29.2653C31.9182 29.2653 31.9182 29.2426 31.6004 29.2426C31.3053 29.2426 31.3053 29.2426 30.9875 29.2426C30.6924 29.2426 30.6924 29.4013 30.3745 29.4013C30.0794 29.4013 30.0794 29.2879 29.7616 29.2879C29.4665 29.2879 29.4665 29.2879 29.1487 29.2879C28.8535 29.2879 28.8535 29.4013 28.5357 29.4013C28.2406 29.4013 28.2406 29.2879 27.9228 29.2879C27.6277 29.2879 27.6277 29.3786 27.3098 29.3786C27.0147 29.3786 27.0147 29.3106 26.6969 29.3106C26.4018 29.3106 26.4018 29.3106 26.084 29.3106C25.7888 29.3106 25.7888 29.3559 25.471 29.3559C25.1759 29.3559 25.1759 29.3333 24.8581 29.3333C24.563 29.3333 24.563 29.3333 24.2452 29.3333C23.95 29.3333 23.95 29.1973 23.6322 29.1973C23.3371 29.1973 23.3371 29.1973 23.0193 29.1973C22.7242 29.1973 22.7242 29.4013 22.4063 29.4013C22.1112 29.4013 22.1112 29.2199 21.7934 29.2199C21.4983 29.2199 21.4983 29.3559 21.1805 29.3559C20.8853 29.3559 20.8853 29.3106 20.5675 29.3106C20.2724 29.3106 20.2724 29.3106 19.9546 29.3106C19.6595 29.3106 19.6595 29.2426 19.3416 29.2426C19.0465 29.2426 19.0465 29.4013 18.7287 29.4013C18.4336 29.4013 18.4336 29.3786 18.1158 29.3786C17.8207 29.3786 17.8207 29.3106 17.5028 29.3106C17.2077 29.3106 17.2077 29.2653 16.8899 29.2653C16.5948 29.2653 16.5948 29.4013 16.277 29.4013C15.9818 29.4013 15.9818 29.1973 15.664 29.1973C15.3689 29.1973 15.3689 29.4013 15.0511 29.4013C14.756 29.4013 14.756 29.3786 14.4381 29.3786C14.143 29.3786 14.143 29.2653 13.8252 29.2653C13.5301 29.2653 13.5301 29.1973 13.2123 29.1973C12.9171 29.1973 12.9171 29.1973 12.5993 29.1973C12.3042 29.1973 12.3042 29.1746 11.9864 29.1746C11.6913 29.1746 11.6913 29.1973 11.3735 29.1973C11.0783 29.1973 11.0783 29.2426 10.7605 29.2426C10.4654 29.2426 10.4654 29.1973 10.1476 29.1973C9.85246 29.1973 9.85246 29.1973 9.53464 29.1973C9.23952 29.1973 9.23952 29.2879 8.9217 29.2879C8.62658 29.2879 8.62658 29.3333 8.30876 29.3333C8.01364 29.3333 8.01364 29.4013 7.69582 29.4013C7.4007 29.4013 7.4007 29.3786 7.08288 29.3786C6.78777 29.3786 6.78777 29.4013 6.46995 29.4013C6.17483 29.4013 6.17483 29.2879 5.85701 29.2879C5.56189 29.2879 5.56189 29.3333 5.24407 29.3333C4.94895 29.3333 4.94895 29.2653 4.63113 29.2653C4.33601 29.2653 4.1771 29.6053 3.95009 29.3786C3.72307 29.1519 4.01819 28.9932 4.01819 28.6985C4.01819 28.3812 3.99549 28.3812 3.99549 28.0865C3.99549 27.7691 3.97279 27.7691 3.97279 27.4744C3.97279 27.1571 3.95009 27.1571 3.95009 26.8624C3.95009 26.545 3.97279 26.545 3.97279 26.2503C3.97279 25.933 3.99549 25.933 3.99549 25.6383C3.99549 25.3436 3.79118 25.2529 4.01819 25.0262C4.22251 24.7995 4.31331 24.9129 4.60843 24.9129C4.90355 24.9129 4.90355 24.8902 5.22137 24.8902C5.51649 24.8902 5.51649 24.9129 5.83431 24.9129C6.12942 24.9129 6.12942 24.9582 6.44724 24.9582C6.74236 24.9582 6.74236 24.9356 7.06018 24.9356C7.3553 24.9356 7.3553 25.0942 7.67312 25.0942C7.96824 25.0942 7.96824 24.9129 8.28606 24.9129C8.58118 24.9129 8.58118 24.9582 8.899 24.9582C9.19411 24.9582 9.19412 25.0036 9.51193 25.0036C9.80705 25.0036 9.80705 25.1169 10.1249 25.1169C10.42 25.1169 10.42 25.0942 10.7378 25.0942C11.0329 25.0942 11.0329 24.9582 11.3507 24.9582C11.6459 24.9582 11.6459 25.0262 11.9637 25.0262C12.2588 25.0262 12.2588 25.0262 12.5766 25.0262C12.8717 25.0262 12.8717 25.0036 13.1896 25.0036C13.4847 25.0036 13.4847 25.0036 13.8025 25.0036C14.0976 25.0036 14.0976 24.9809 14.4154 24.9809C14.7106 24.9809 14.7106 25.0036 15.0284 25.0036C15.3235 25.0036 15.3235 24.9809 15.6413 24.9809C15.9364 24.9809 15.9364 24.9582 16.2543 24.9582C16.5494 24.9582 16.5494 25.0036 16.8672 25.0036C17.1623 25.0036 17.1623 24.9582 17.4801 24.9582C17.7752 24.9582 17.7752 24.9356 18.0931 24.9356C18.3882 24.9356 18.3882 24.9129 18.706 24.9129C19.0011 24.9129 19.0011 25.1169 19.3189 25.1169C19.6141 25.1169 19.6141 25.0262 19.9319 25.0262C20.227 25.0262 20.227 24.9129 20.5448 24.9129C20.8399 24.9129 20.8399 24.8902 21.1578 24.8902C21.4529 24.8902 21.4529 25.0036 21.7707 25.0036C22.0658 25.0036 22.0658 24.9809 22.3836 24.9809C22.6788 24.9809 22.6788 24.9129 22.9966 24.9129C23.2917 24.9129 23.2917 24.9582 23.6095 24.9582C23.9046 24.9582 23.9046 24.9356 24.2224 24.9356C24.5176 24.9356 24.5176 25.0036 24.8354 25.0036C25.1305 25.0036 25.1305 25.0262 25.4483 25.0262C25.7434 25.0262 25.7434 25.0942 26.0613 25.0942C26.3564 25.0942 26.3564 24.9356 26.6742 24.9356C26.9693 24.9356 26.9693 24.9356 27.2871 24.9356C27.5823 24.9356 27.5823 25.1169 27.9001 25.1169C28.1952 25.1169 28.1952 25.0716 28.513 25.0716C28.8081 25.0716 28.8081 25.0262 29.126 25.0262C29.4211 25.0262 29.4211 25.0489 29.7389 25.0489C30.034 25.0489 30.034 24.9809 30.3518 24.9809C30.6469 24.9809 30.6469 24.9129 30.9648 24.9129C31.2599 24.9129 31.2599 24.9129 31.5777 24.9129C31.8728 24.9129 31.8728 24.9356 32.1906 24.9356C32.4858 24.9356 32.4858 25.0036 32.8036 25.0036C33.0987 25.0036 33.0987 24.9809 33.4165 24.9809C33.7116 24.9809 33.7116 25.0716 34.0295 25.0716C34.3246 25.0716 34.3246 25.0716 34.6424 25.0716C34.9375 25.0716 34.9375 25.0489 35.2553 25.0489C35.5505 25.0489 35.5505 24.9356 35.8683 24.9356C36.1634 24.9356 36.1634 25.0489 36.4812 25.0489C36.7763 25.0489 36.7763 24.9129 37.0941 24.9129C37.3893 24.9129 37.3893 25.0036 37.7071 25.0036C38.0022 25.0036 38.0022 25.0942 38.32 25.0942C38.6151 25.0942 38.6151 25.0036 38.933 25.0036C39.2281 25.0036 39.2281 25.0716 39.5459 25.0716C39.841 25.0716 39.841 24.9129 40.1588 24.9129C40.454 24.9129 40.454 25.0489 40.7718 25.0489C41.0669 25.0489 41.0669 25.0036 41.3847 25.0036C41.6798 25.0036 41.6798 24.8676 41.9977 24.8676C42.2928 24.8676 42.2928 24.8902 42.6106 24.8902C42.9057 24.8902 42.9057 24.9129 43.2235 24.9129C43.5186 24.9129 43.5187 25.0489 43.8365 25.0489C44.1316 25.0489 44.1316 25.0036 44.4494 25.0036C44.7445 25.0036 44.7445 24.9582 45.0623 24.9582C45.3575 24.9582 45.3575 25.0716 45.6753 25.0716C45.9704 25.0716 45.9704 24.9582 46.2882 24.9582C46.5833 24.9582 46.5833 24.9809 46.9012 24.9809C47.1963 24.9809 47.1963 25.0716 47.5141 25.0716C47.8092 25.0716 47.8092 25.0942 48.127 25.0942C48.4222 25.0942 48.4222 24.8902 48.74 24.8902C49.0351 24.8902 49.0351 25.0262 49.3529 25.0262C49.648 25.0262 49.648 24.9129 49.9659 24.9129C50.261 24.9129 50.261 24.9582 50.5788 24.9582C50.8739 24.9582 50.8739 25.0942 51.1917 25.0942C51.4868 25.0942 51.4868 25.0489 51.8047 25.0489C52.0998 25.0489 52.0998 25.1169 52.4176 25.1169C52.7127 25.1169 52.7127 25.0036 53.0305 25.0036C53.3257 25.0036 53.3257 25.0716 53.6435 25.0716C53.9386 25.0716 53.9386 25.0489 54.2564 25.0489C54.5515 25.0489 54.5515 24.9582 54.8694 24.9582C55.1645 24.9582 55.1645 25.0262 55.4823 25.0262C55.7774 25.0262 55.7774 24.9582 56.0952 24.9582C56.3904 24.9582 56.3904 25.0489 56.7082 25.0489C57.0033 25.0489 57.0033 24.9129 57.3211 24.9129C57.6162 24.9129 57.6162 24.9582 57.934 24.9582C58.2292 24.9582 58.2292 25.0036 58.547 25.0036C58.8421 25.0036 58.8421 24.9356 59.1599 24.9356C59.455 24.9356 59.455 24.9809 59.7729 24.9809C60.068 24.9809 60.068 25.1169 60.3858 25.1169C60.6809 25.1169 60.6809 25.0716 60.9987 25.0716C61.2939 25.0716 61.2939 24.9356 61.6117 24.9356C61.9068 24.9356 61.9068 25.0942 62.2246 25.0942C62.5197 25.0942 62.5197 25.0262 62.8375 25.0262C63.1327 25.0262 63.1327 24.9582 63.4505 24.9582C63.7456 24.9582 63.7456 25.1169 64.0634 25.1169C64.3585 25.1169 64.3585 25.0036 64.6764 25.0036C64.9715 25.0036 64.9715 25.1396 65.2893 25.1396C65.5844 25.1396 65.5844 24.9356 65.9022 24.9356C66.1974 24.9356 66.1974 24.9582 66.5152 24.9582C66.8103 24.9582 66.8103 24.9356 67.1281 24.9356C67.4232 24.9356 67.4232 25.0489 67.7411 25.0489C68.0362 25.0489 68.0362 24.9356 68.354 24.9356C68.6491 24.9356 68.6491 24.9809 68.9669 24.9809C69.262 24.9809 69.262 25.1169 69.5799 25.1169C69.875 25.1169 69.875 25.0716 70.1928 25.0716C70.4879 25.0716 70.4879 25.0489 70.8057 25.0489C71.1009 25.0489 71.1009 25.1622 71.4187 25.1622C71.7138 25.1622 71.7138 25.1396 72.0316 25.1396C72.3267 25.1396 72.3267 25.1396 72.6446 25.1396C72.9397 25.1396 72.9397 25.0716 73.2575 25.0716C73.5526 25.0716 73.5526 25.0489 73.8704 25.0489C74.1656 25.0489 74.1656 25.0716 74.4834 25.0716C74.7785 25.0716 74.7785 25.1169 75.0963 25.1169C75.3914 25.1169 75.3914 25.0262 75.7093 25.0262C76.0044 25.0262 76.0044 25.1622 76.3222 25.1622C76.64 25.1622 76.7762 24.7995 76.9805 25.0262C77.2075 25.2529 76.9351 25.3889 76.9351 25.7063C76.9351 26.0237 76.8216 26.0237 76.8216 26.3183C76.8216 26.6357 76.8897 26.6357 76.8897 26.9304C76.8897 27.2478 76.9351 27.2478 76.9351 27.5424C76.9351 27.8598 76.9124 27.8598 76.9124 28.1545C76.9124 28.4719 76.7762 28.4945 76.8443 28.7892C76.9578 29.0159 77.2302 29.0839 77.0032 29.3106Z" fill="#2B292D"/>
<path d="M15.3916 99.9459C15.0965 99.9912 15.21 99.7872 14.983 99.6058C14.7559 99.4245 14.7786 99.4018 14.5289 99.2205C14.3019 99.0391 14.2565 99.0844 14.0295 98.9031C13.8025 98.7217 13.7798 98.7444 13.5301 98.5857C13.2803 98.4271 13.3258 98.3817 13.076 98.2004C12.849 98.019 12.7355 98.155 12.5085 97.9737C12.2815 97.7923 12.3496 97.7017 12.1226 97.5203C11.8956 97.339 11.8956 97.339 11.6685 97.1576C11.4415 96.9763 11.3734 97.0443 11.1464 96.8629C10.9194 96.6816 10.9648 96.6136 10.7378 96.4322C10.5108 96.2509 10.4881 96.2735 10.2611 96.0922C10.034 95.9108 9.89784 96.0242 9.87514 95.7295C9.82973 95.4348 10.0567 95.5708 10.2384 95.3215C10.42 95.0948 10.42 95.0721 10.6016 94.8454C10.7832 94.6187 10.7832 94.6187 10.9648 94.3694C11.1464 94.1427 11.0783 94.0747 11.2599 93.848C11.4415 93.6213 11.3734 93.576 11.555 93.3266C11.7367 93.0999 11.8729 93.1906 12.0545 92.9413C12.2361 92.7146 12.1453 92.6239 12.3269 92.3972C12.5085 92.1705 12.5993 92.2385 12.7809 91.9892C12.9625 91.7625 12.9625 91.7398 13.1441 91.5131C13.3258 91.2864 13.3258 91.2864 13.5074 91.0371C13.689 90.8104 13.5982 90.7197 13.7798 90.493C13.9614 90.2664 13.9841 90.2664 14.1657 90.0397C14.3473 89.813 14.3927 89.8357 14.5743 89.5863C14.7559 89.3596 14.7559 89.3596 14.9376 89.1103C15.1192 88.8836 15.1192 88.8609 15.3008 88.6342C15.4824 88.4075 15.4143 88.3395 15.5959 88.1128C15.7775 87.8862 15.8683 87.9315 16.0499 87.7048C16.2315 87.4555 16.1407 87.4101 16.3223 87.1608C16.5039 86.9114 16.4812 86.9114 16.6629 86.662C16.8445 86.4127 16.7537 86.186 17.0715 86.1633C17.3666 86.118 17.3212 86.39 17.5482 86.5714C17.7752 86.7527 17.7752 86.7754 18.0022 86.9567C18.2293 87.1381 18.2974 87.0474 18.5471 87.2288C18.7741 87.4101 18.7287 87.4781 18.9557 87.6595C19.1827 87.8408 19.2281 87.7728 19.4778 87.9542C19.7048 88.1355 19.6821 88.1808 19.9092 88.3622C20.1362 88.5435 20.1589 88.5209 20.3859 88.7022C20.6129 88.8836 20.5675 88.9289 20.8172 89.1103C21.0442 89.2916 21.0896 89.2463 21.3166 89.4276C21.5437 89.609 21.4756 89.6996 21.7253 89.881C21.9523 90.0623 21.975 90.0397 22.202 90.221C22.429 90.4024 22.7468 90.2437 22.7922 90.5384C22.8376 90.8331 22.5425 90.8104 22.3609 91.0598C22.1793 91.2864 22.1112 91.2411 21.9296 91.4905C21.748 91.7172 21.8161 91.7852 21.6345 92.0118C21.4529 92.2385 21.3621 92.1705 21.1804 92.4199C20.9988 92.6466 20.9761 92.6466 20.7945 92.8732C20.6129 93.0999 20.681 93.1679 20.4994 93.3946C20.3178 93.6213 20.4086 93.6893 20.227 93.9387C20.0454 94.1654 20.0454 94.1654 19.8638 94.4147C19.6821 94.6414 19.614 94.5961 19.4324 94.8454C19.2508 95.0721 19.2735 95.0948 19.0919 95.3215C18.9103 95.5481 18.8876 95.5481 18.706 95.7748C18.5244 96.0015 18.4336 95.9562 18.252 96.1829C18.0703 96.4095 18.2066 96.5229 18.0249 96.7722C17.8433 96.9989 17.7525 96.9309 17.5709 97.1803C17.3893 97.407 17.3893 97.407 17.2077 97.6563C17.0261 97.883 17.0715 97.9283 16.8899 98.1777C16.7083 98.4044 16.7764 98.4497 16.5948 98.6991C16.4131 98.9484 16.4131 98.9258 16.2315 99.1751C16.0499 99.4245 15.9591 99.3565 15.8229 99.6058C15.6413 99.8098 15.6867 99.9005 15.3916 99.9459Z" fill="#2B292D"/>
<path d="M67.0372 99.9912C67.3323 100.037 67.2869 99.9005 67.514 99.7192C67.741 99.5378 67.7183 99.4925 67.9453 99.3112C68.1723 99.1298 68.1496 99.0845 68.3766 98.9258C68.6036 98.7444 68.6717 98.8351 68.8987 98.6538C69.1258 98.4724 69.1031 98.4271 69.3301 98.2684C69.5571 98.0871 69.5798 98.1097 69.8068 97.951C70.0338 97.7697 70.0792 97.8377 70.3062 97.6563C70.5333 97.475 70.4651 97.3843 70.7149 97.2256C70.9419 97.0443 71.01 97.1123 71.237 96.931C71.464 96.7496 71.3732 96.6363 71.6002 96.4549C71.8272 96.2736 71.8953 96.3416 72.1223 96.1602C72.3494 95.9789 72.5991 96.0922 72.6445 95.7975C72.6899 95.5028 72.4402 95.5255 72.2586 95.2988C72.0769 95.0721 72.0542 95.0721 71.8726 94.8454C71.691 94.6188 71.691 94.6188 71.5094 94.3694C71.3278 94.1427 71.3959 94.0747 71.2143 93.848C71.0327 93.6213 70.9646 93.6667 70.783 93.4173C70.6013 93.1906 70.5332 93.236 70.3516 92.9866C70.17 92.7599 70.17 92.7599 69.9884 92.5106C69.8068 92.2839 69.9657 92.1479 69.7841 91.9212C69.6025 91.6945 69.6025 91.6945 69.4209 91.4452C69.2393 91.2185 69.1258 91.2865 68.9442 91.0598C68.7625 90.8331 68.8079 90.7878 68.6263 90.5611C68.4447 90.3344 68.4901 90.289 68.3085 90.0397C68.1269 89.7903 68.0588 89.8583 67.8772 89.609C67.6956 89.3823 67.6275 89.4276 67.4459 89.1783C67.2642 88.9516 67.4232 88.8156 67.2415 88.5889C67.0599 88.3622 67.0599 88.3622 66.8783 88.1129C66.6967 87.8862 66.6059 87.9542 66.4243 87.7048C66.2427 87.4555 66.1746 87.5008 65.993 87.2741C65.8114 87.0248 65.8341 87.0248 65.6524 86.7754C65.4708 86.5261 65.6297 86.3901 65.3346 86.3447C65.0395 86.2994 65.1076 86.4127 64.8579 86.5941C64.6309 86.7754 64.6309 86.7754 64.4039 86.9568C64.1769 87.1381 64.245 87.2288 64.0179 87.4101C63.7909 87.5915 63.7001 87.4781 63.4731 87.6595C63.2461 87.8408 63.2234 87.8182 62.9964 87.9995C62.7694 88.1809 62.7921 88.2035 62.5651 88.3849C62.338 88.5662 62.2926 88.5209 62.0656 88.7022C61.8386 88.8836 61.9067 88.9743 61.6797 89.1556C61.4527 89.337 61.4073 89.2916 61.1803 89.473C60.9533 89.6543 60.9533 89.677 60.7262 89.8357C60.4992 90.017 60.4538 89.949 60.2041 90.1304C59.9771 90.3117 59.8863 90.2437 59.8409 90.5384C59.7955 90.8331 59.9998 90.7198 60.1814 90.9464C60.363 91.1731 60.2722 91.2638 60.4538 91.4905C60.6354 91.7172 60.7262 91.6718 60.9078 91.8985C61.0895 92.1252 61.0441 92.1705 61.2257 92.4199C61.4073 92.6466 61.3619 92.6919 61.5435 92.9186C61.7251 93.1453 61.8386 93.0773 62.0202 93.304C62.2018 93.5307 62.0883 93.6213 62.2699 93.8707C62.4515 94.0974 62.4288 94.12 62.6105 94.3467C62.7921 94.5734 62.8602 94.5281 63.0418 94.7774C63.2234 95.0041 63.2007 95.0268 63.3823 95.2761C63.5639 95.5028 63.6093 95.4802 63.7909 95.7068C63.9725 95.9335 64.0179 95.9109 64.1996 96.1376C64.3812 96.3642 64.2223 96.5002 64.4039 96.7496C64.5855 96.9763 64.7444 96.8629 64.926 97.1123C65.1076 97.339 65.0168 97.4297 65.1984 97.6563C65.38 97.883 65.4254 97.8604 65.607 98.1097C65.7887 98.3364 65.7887 98.3364 65.993 98.5858C66.1746 98.8351 66.1746 98.8124 66.3562 99.0618C66.5378 99.3112 66.5378 99.3112 66.674 99.5605C66.7875 99.8325 66.7421 99.9459 67.0372 99.9912Z" fill="#2B292D"/>
</svg>
